<svg xmlns="http://www.w3.org/2000/svg" viewBox="0 0 700 360" font-family="Georgia, 'Times New Roman', serif" font-size="11" fill="#1a1714"><defs>  <marker id="arrow" markerWidth="8" markerHeight="6" refX="7" refY="3" orient="auto">    <polygon points="0 0, 8 3, 0 6" fill="#1a1714"/>  </marker>  <marker id="arrowL" markerWidth="10" markerHeight="8" refX="9" refY="4" orient="auto">    <polygon points="0 0, 10 4, 0 8" fill="#1a1714"/>  </marker></defs><rect width="700" height="360" fill="#fdfcfb"/><text x="350" y="22" font-size="13" text-anchor="middle" font-weight="bold" fill="#1a1714">The same algebra produces a 'general factor' from any positively correlated set</text><text x="180" y="50" font-size="12" text-anchor="middle" font-weight="bold" fill="#1a1714">Cognitive tests</text><rect x="80" y="90" width="90" height="30" fill="#f5f2ee" stroke="#1a1714" stroke-width="1"/><text x="125" y="109" font-size="10" text-anchor="middle" fill="#1a1714">verbal</text><line x1="170" y1="105" x2="210" y2="165" stroke="#1a1714" stroke-width="1.5" marker-end="url(#arrow)"/><rect x="80" y="140" width="90" height="30" fill="#f5f2ee" stroke="#1a1714" stroke-width="1"/><text x="125" y="159" font-size="10" text-anchor="middle" fill="#1a1714">spatial</text><line x1="170" y1="155" x2="210" y2="165" stroke="#1a1714" stroke-width="1.5" marker-end="url(#arrow)"/><rect x="80" y="190" width="90" height="30" fill="#f5f2ee" stroke="#1a1714" stroke-width="1"/><text x="125" y="209" font-size="10" text-anchor="middle" fill="#1a1714">math</text><line x1="170" y1="205" x2="210" y2="165" stroke="#1a1714" stroke-width="1.5" marker-end="url(#arrow)"/><rect x="210" y="145" width="90" height="40" fill="#c8c4c0" stroke="#1a1714" stroke-width="1"/><text x="255" y="161" font-size="11" text-anchor="middle" font-weight="bold" fill="#1a1714">PCA</text><text x="255" y="177" font-size="9" text-anchor="middle" font-style="italic" fill="#4a4540">(first PC)</text><line x1="255" y1="185" x2="255" y2="230" stroke="#1a1714" stroke-width="1.5" marker-end="url(#arrow)"/><rect x="130" y="230" width="250" height="40" fill="#f5f2ee" stroke="#1a1714" stroke-width="1"/><text x="255" y="252" font-size="11" text-anchor="middle" font-weight="bold" fill="#1a1714">g  ("general intelligence")</text><text x="520" y="50" font-size="12" text-anchor="middle" font-weight="bold" fill="#1a1714">Cars</text><rect x="420" y="90" width="90" height="30" fill="#f5f2ee" stroke="#1a1714" stroke-width="1"/><text x="465" y="109" font-size="10" text-anchor="middle" fill="#1a1714">horsepower</text><line x1="510" y1="105" x2="550" y2="165" stroke="#1a1714" stroke-width="1.5" marker-end="url(#arrow)"/><rect x="420" y="140" width="90" height="30" fill="#f5f2ee" stroke="#1a1714" stroke-width="1"/><text x="465" y="159" font-size="10" text-anchor="middle" fill="#1a1714">top speed</text><line x1="510" y1="155" x2="550" y2="165" stroke="#1a1714" stroke-width="1.5" marker-end="url(#arrow)"/><rect x="420" y="190" width="90" height="30" fill="#f5f2ee" stroke="#1a1714" stroke-width="1"/><text x="465" y="209" font-size="10" text-anchor="middle" fill="#1a1714">sticker price</text><line x1="510" y1="205" x2="550" y2="165" stroke="#1a1714" stroke-width="1.5" marker-end="url(#arrow)"/><rect x="550" y="145" width="90" height="40" fill="#c8c4c0" stroke="#1a1714" stroke-width="1"/><text x="595" y="161" font-size="11" text-anchor="middle" font-weight="bold" fill="#1a1714">PCA</text><text x="595" y="177" font-size="9" text-anchor="middle" font-style="italic" fill="#4a4540">(first PC)</text><line x1="595" y1="185" x2="595" y2="230" stroke="#1a1714" stroke-width="1.5" marker-end="url(#arrow)"/><rect x="470" y="230" width="250" height="40" fill="#f5f2ee" stroke="#1a1714" stroke-width="1"/><text x="595" y="252" font-size="11" text-anchor="middle" font-weight="bold" fill="#1a1714">general car-quality factor</text><text x="350" y="310" font-size="10" text-anchor="middle" font-style="italic" fill="#1a1714">Mathematical structure identical. The first algorithm yields biology;</text><text x="350" y="326" font-size="10" text-anchor="middle" font-style="italic" fill="#1a1714">the second yields a number Consumer Reports already knew. Neither shows that g is a thing.</text></svg>