<svg xmlns="http://www.w3.org/2000/svg" viewBox="0 0 700 360" font-family="Georgia, 'Times New Roman', serif" font-size="11" fill="#1a1714"><defs>  <marker id="arrow" markerWidth="8" markerHeight="6" refX="7" refY="3" orient="auto">    <polygon points="0 0, 8 3, 0 6" fill="#1a1714"/>  </marker>  <marker id="arrowL" markerWidth="10" markerHeight="8" refX="9" refY="4" orient="auto">    <polygon points="0 0, 10 4, 0 8" fill="#1a1714"/>  </marker></defs><rect width="700" height="360" fill="#fdfcfb"/><text x="350" y="22" font-size="13" text-anchor="middle" font-weight="bold" fill="#1a1714">Physarum's network and the actual Tokyo rail map</text><text x="180" y="50" font-size="12" text-anchor="middle" font-weight="bold" fill="#1a1714">Physarum on agar with oat flakes</text><rect x="50" y="65" width="260" height="230" fill="#f5f2ee" stroke="#1a1714" stroke-width="1"/><line x1="180.0" y1="180.0" x2="100.0" y2="132.0" stroke="#1a1714" stroke-width="1.5"/><line x1="180.0" y1="180.0" x2="244.0" y2="116.0" stroke="#1a1714" stroke-width="1.5"/><line x1="180.0" y1="180.0" x2="132.0" y2="228.0" stroke="#1a1714" stroke-width="1.5"/><line x1="180.0" y1="180.0" x2="260.0" y2="212.0" stroke="#1a1714" stroke-width="1.5"/><line x1="180.0" y1="180.0" x2="276.0" y2="164.0" stroke="#1a1714" stroke-width="1.5"/><line x1="180.0" y1="180.0" x2="196.0" y2="244.0" stroke="#1a1714" stroke-width="1.5"/><line x1="100.0" y1="132.0" x2="132.0" y2="228.0" stroke="#1a1714" stroke-width="1.5"/><line x1="100.0" y1="132.0" x2="108.0" y2="188.0" stroke="#1a1714" stroke-width="1.5"/><line x1="244.0" y1="116.0" x2="156.0" y2="92.0" stroke="#1a1714" stroke-width="1.5"/><line x1="244.0" y1="116.0" x2="220.0" y2="76.0" stroke="#1a1714" stroke-width="1.5"/><line x1="260.0" y1="212.0" x2="276.0" y2="164.0" stroke="#1a1714" stroke-width="1.5"/><line x1="260.0" y1="212.0" x2="220.0" y2="76.0" stroke="#1a1714" stroke-width="1.5"/><line x1="132.0" y1="228.0" x2="108.0" y2="188.0" stroke="#1a1714" stroke-width="1.5"/><line x1="156.0" y1="92.0" x2="220.0" y2="76.0" stroke="#1a1714" stroke-width="1.5"/><line x1="100.0" y1="132.0" x2="196.0" y2="244.0" stroke="#1a1714" stroke-width="1.5"/><circle cx="180.0" cy="180.0" r="5" fill="#1a1714" stroke="#1a1714" stroke-width="1"/><circle cx="100.0" cy="132.0" r="5" fill="#1a1714" stroke="#1a1714" stroke-width="1"/><circle cx="244.0" cy="116.0" r="5" fill="#1a1714" stroke="#1a1714" stroke-width="1"/><circle cx="132.0" cy="228.0" r="5" fill="#1a1714" stroke="#1a1714" stroke-width="1"/><circle cx="260.0" cy="212.0" r="5" fill="#1a1714" stroke="#1a1714" stroke-width="1"/><circle cx="156.0" cy="92.0" r="5" fill="#1a1714" stroke="#1a1714" stroke-width="1"/><circle cx="276.0" cy="164.0" r="5" fill="#1a1714" stroke="#1a1714" stroke-width="1"/><circle cx="196.0" cy="244.0" r="5" fill="#1a1714" stroke="#1a1714" stroke-width="1"/><circle cx="108.0" cy="188.0" r="5" fill="#1a1714" stroke="#1a1714" stroke-width="1"/><circle cx="220.0" cy="76.0" r="5" fill="#1a1714" stroke="#1a1714" stroke-width="1"/><text x="188.0" y="176.0" font-size="9" fill="#4a4540">Tokyo</text><text x="520" y="50" font-size="12" text-anchor="middle" font-weight="bold" fill="#1a1714">Tokyo Kanto rail network</text><rect x="390" y="65" width="260" height="230" fill="#f5f2ee" stroke="#1a1714" stroke-width="1"/><line x1="520.0" y1="180.0" x2="440.0" y2="132.0" stroke="#1a1714" stroke-width="1.5"/><line x1="520.0" y1="180.0" x2="584.0" y2="116.0" stroke="#1a1714" stroke-width="1.5"/><line x1="520.0" y1="180.0" x2="472.0" y2="228.0" stroke="#1a1714" stroke-width="1.5"/><line x1="520.0" y1="180.0" x2="600.0" y2="212.0" stroke="#1a1714" stroke-width="1.5"/><line x1="520.0" y1="180.0" x2="616.0" y2="164.0" stroke="#1a1714" stroke-width="1.5"/><line x1="520.0" y1="180.0" x2="536.0" y2="244.0" stroke="#1a1714" stroke-width="1.5"/><line x1="440.0" y1="132.0" x2="472.0" y2="228.0" stroke="#1a1714" stroke-width="1.5"/><line x1="440.0" y1="132.0" x2="448.0" y2="188.0" stroke="#1a1714" stroke-width="1.5"/><line x1="584.0" y1="116.0" x2="496.0" y2="92.0" stroke="#1a1714" stroke-width="1.5"/><line x1="584.0" y1="116.0" x2="560.0" y2="76.0" stroke="#1a1714" stroke-width="1.5"/><line x1="600.0" y1="212.0" x2="616.0" y2="164.0" stroke="#1a1714" stroke-width="1.5"/><line x1="600.0" y1="212.0" x2="560.0" y2="76.0" stroke="#1a1714" stroke-width="1.5"/><line x1="472.0" y1="228.0" x2="448.0" y2="188.0" stroke="#1a1714" stroke-width="1.5"/><line x1="496.0" y1="92.0" x2="560.0" y2="76.0" stroke="#1a1714" stroke-width="1.5"/><line x1="440.0" y1="132.0" x2="536.0" y2="244.0" stroke="#1a1714" stroke-width="1.5"/><circle cx="520.0" cy="180.0" r="5" fill="#1a1714" stroke="#1a1714" stroke-width="1"/><circle cx="440.0" cy="132.0" r="5" fill="#1a1714" stroke="#1a1714" stroke-width="1"/><circle cx="584.0" cy="116.0" r="5" fill="#1a1714" stroke="#1a1714" stroke-width="1"/><circle cx="472.0" cy="228.0" r="5" fill="#1a1714" stroke="#1a1714" stroke-width="1"/><circle cx="600.0" cy="212.0" r="5" fill="#1a1714" stroke="#1a1714" stroke-width="1"/><circle cx="496.0" cy="92.0" r="5" fill="#1a1714" stroke="#1a1714" stroke-width="1"/><circle cx="616.0" cy="164.0" r="5" fill="#1a1714" stroke="#1a1714" stroke-width="1"/><circle cx="536.0" cy="244.0" r="5" fill="#1a1714" stroke="#1a1714" stroke-width="1"/><circle cx="448.0" cy="188.0" r="5" fill="#1a1714" stroke="#1a1714" stroke-width="1"/><circle cx="560.0" cy="76.0" r="5" fill="#1a1714" stroke="#1a1714" stroke-width="1"/><text x="528.0" y="176.0" font-size="9" fill="#4a4540">Tokyo</text><text x="350" y="320" font-size="10" text-anchor="middle" font-style="italic" fill="#4a4540">Tero et al. 2010 — the slime mold reproduces the topology of an engineered transportation network.</text></svg>