<svg xmlns="http://www.w3.org/2000/svg" viewBox="0 0 700 360" font-family="Georgia, 'Times New Roman', serif" font-size="11" fill="#1a1714"><defs>  <marker id="arrow" markerWidth="8" markerHeight="6" refX="7" refY="3" orient="auto">    <polygon points="0 0, 8 3, 0 6" fill="#1a1714"/>  </marker>  <marker id="arrowL" markerWidth="10" markerHeight="8" refX="9" refY="4" orient="auto">    <polygon points="0 0, 10 4, 0 8" fill="#1a1714"/>  </marker></defs><rect width="700" height="360" fill="#fdfcfb"/><text x="350" y="22" font-size="13" text-anchor="middle" font-weight="bold" fill="#1a1714">Physarum polycephalum solving a maze in four frames</text><rect x="30" y="50" width="150" height="200" fill="#f5f2ee" stroke="#1a1714" stroke-width="1"/><rect x="42" y="60" width="126" height="180" fill="#fdfcfb" stroke="#1a1714" stroke-width="1"/><line x1="42" y1="100" x2="102" y2="100" stroke="#1a1714" stroke-width="1.5"/><line x1="120" y1="100" x2="168" y2="100" stroke="#1a1714" stroke-width="1.5"/><line x1="90" y1="60" x2="90" y2="120" stroke="#1a1714" stroke-width="1.5"/><line x1="90" y1="140" x2="90" y2="190" stroke="#1a1714" stroke-width="1.5"/><line x1="120" y1="140" x2="120" y2="200" stroke="#1a1714" stroke-width="1.5"/><line x1="42" y1="180" x2="92" y2="180" stroke="#1a1714" stroke-width="1.5"/><circle cx="55" cy="75" r="4" fill="#1a1714" stroke="#1a1714" stroke-width="1"/><circle cx="155" cy="225" r="4" fill="#1a1714" stroke="#1a1714" stroke-width="1"/><circle cx="55" cy="75" r="8" fill="#8a8480" stroke="#1a1714" stroke-width="0.5"/><text x="105" y="270" font-size="11" text-anchor="middle" font-weight="bold" fill="#1a1714">1. Inoculation</text><rect x="195" y="50" width="150" height="200" fill="#f5f2ee" stroke="#1a1714" stroke-width="1"/><rect x="207" y="60" width="126" height="180" fill="#fdfcfb" stroke="#1a1714" stroke-width="1"/><line x1="207" y1="100" x2="267" y2="100" stroke="#1a1714" stroke-width="1.5"/><line x1="285" y1="100" x2="333" y2="100" stroke="#1a1714" stroke-width="1.5"/><line x1="255" y1="60" x2="255" y2="120" stroke="#1a1714" stroke-width="1.5"/><line x1="255" y1="140" x2="255" y2="190" stroke="#1a1714" stroke-width="1.5"/><line x1="285" y1="140" x2="285" y2="200" stroke="#1a1714" stroke-width="1.5"/><line x1="207" y1="180" x2="257" y2="180" stroke="#1a1714" stroke-width="1.5"/><circle cx="220" cy="75" r="4" fill="#1a1714" stroke="#1a1714" stroke-width="1"/><circle cx="320" cy="225" r="4" fill="#1a1714" stroke="#1a1714" stroke-width="1"/><circle cx="211" cy="68" r="7" fill="#c8c4c0" stroke="#8a8480" stroke-width="0.4"/><circle cx="227" cy="68" r="7" fill="#c8c4c0" stroke="#8a8480" stroke-width="0.4"/><circle cx="243" cy="68" r="7" fill="#c8c4c0" stroke="#8a8480" stroke-width="0.4"/><circle cx="259" cy="68" r="7" fill="#c8c4c0" stroke="#8a8480" stroke-width="0.4"/><circle cx="275" cy="68" r="7" fill="#c8c4c0" stroke="#8a8480" stroke-width="0.4"/><circle cx="291" cy="68" r="7" fill="#c8c4c0" stroke="#8a8480" stroke-width="0.4"/><circle cx="307" cy="68" r="7" fill="#c8c4c0" stroke="#8a8480" stroke-width="0.4"/><circle cx="323" cy="68" r="7" fill="#c8c4c0" stroke="#8a8480" stroke-width="0.4"/><circle cx="211" cy="104" r="7" fill="#c8c4c0" stroke="#8a8480" stroke-width="0.4"/><circle cx="227" cy="104" r="7" fill="#c8c4c0" stroke="#8a8480" stroke-width="0.4"/><circle cx="243" cy="104" r="7" fill="#c8c4c0" stroke="#8a8480" stroke-width="0.4"/><circle cx="259" cy="104" r="7" fill="#c8c4c0" stroke="#8a8480" stroke-width="0.4"/><circle cx="275" cy="104" r="7" fill="#c8c4c0" stroke="#8a8480" stroke-width="0.4"/><circle cx="291" cy="104" r="7" fill="#c8c4c0" stroke="#8a8480" stroke-width="0.4"/><circle cx="307" cy="104" r="7" fill="#c8c4c0" stroke="#8a8480" stroke-width="0.4"/><circle cx="323" cy="104" r="7" fill="#c8c4c0" stroke="#8a8480" stroke-width="0.4"/><circle cx="211" cy="140" r="7" fill="#c8c4c0" stroke="#8a8480" stroke-width="0.4"/><circle cx="227" cy="140" r="7" fill="#c8c4c0" stroke="#8a8480" stroke-width="0.4"/><circle cx="243" cy="140" r="7" fill="#c8c4c0" stroke="#8a8480" stroke-width="0.4"/><circle cx="259" cy="140" r="7" fill="#c8c4c0" stroke="#8a8480" stroke-width="0.4"/><circle cx="275" cy="140" r="7" fill="#c8c4c0" stroke="#8a8480" stroke-width="0.4"/><circle cx="291" cy="140" r="7" fill="#c8c4c0" stroke="#8a8480" stroke-width="0.4"/><circle cx="307" cy="140" r="7" fill="#c8c4c0" stroke="#8a8480" stroke-width="0.4"/><circle cx="323" cy="140" r="7" fill="#c8c4c0" stroke="#8a8480" stroke-width="0.4"/><circle cx="211" cy="176" r="7" fill="#c8c4c0" stroke="#8a8480" stroke-width="0.4"/><circle cx="227" cy="176" r="7" fill="#c8c4c0" stroke="#8a8480" stroke-width="0.4"/><circle cx="243" cy="176" r="7" fill="#c8c4c0" stroke="#8a8480" stroke-width="0.4"/><circle cx="259" cy="176" r="7" fill="#c8c4c0" stroke="#8a8480" stroke-width="0.4"/><circle cx="275" cy="176" r="7" fill="#c8c4c0" stroke="#8a8480" stroke-width="0.4"/><circle cx="291" cy="176" r="7" fill="#c8c4c0" stroke="#8a8480" stroke-width="0.4"/><circle cx="307" cy="176" r="7" fill="#c8c4c0" stroke="#8a8480" stroke-width="0.4"/><circle cx="323" cy="176" r="7" fill="#c8c4c0" stroke="#8a8480" stroke-width="0.4"/><circle cx="211" cy="212" r="7" fill="#c8c4c0" stroke="#8a8480" stroke-width="0.4"/><circle cx="227" cy="212" r="7" fill="#c8c4c0" stroke="#8a8480" stroke-width="0.4"/><circle cx="243" cy="212" r="7" fill="#c8c4c0" stroke="#8a8480" stroke-width="0.4"/><circle cx="259" cy="212" r="7" fill="#c8c4c0" stroke="#8a8480" stroke-width="0.4"/><circle cx="275" cy="212" r="7" fill="#c8c4c0" stroke="#8a8480" stroke-width="0.4"/><circle cx="291" cy="212" r="7" fill="#c8c4c0" stroke="#8a8480" stroke-width="0.4"/><circle cx="307" cy="212" r="7" fill="#c8c4c0" stroke="#8a8480" stroke-width="0.4"/><circle cx="323" cy="212" r="7" fill="#c8c4c0" stroke="#8a8480" stroke-width="0.4"/><text x="270" y="270" font-size="11" text-anchor="middle" font-weight="bold" fill="#1a1714">2. Full coverage</text><rect x="360" y="50" width="150" height="200" fill="#f5f2ee" stroke="#1a1714" stroke-width="1"/><rect x="372" y="60" width="126" height="180" fill="#fdfcfb" stroke="#1a1714" stroke-width="1"/><line x1="372" y1="100" x2="432" y2="100" stroke="#1a1714" stroke-width="1.5"/><line x1="450" y1="100" x2="498" y2="100" stroke="#1a1714" stroke-width="1.5"/><line x1="420" y1="60" x2="420" y2="120" stroke="#1a1714" stroke-width="1.5"/><line x1="420" y1="140" x2="420" y2="190" stroke="#1a1714" stroke-width="1.5"/><line x1="450" y1="140" x2="450" y2="200" stroke="#1a1714" stroke-width="1.5"/><line x1="372" y1="180" x2="422" y2="180" stroke="#1a1714" stroke-width="1.5"/><circle cx="385" cy="75" r="4" fill="#1a1714" stroke="#1a1714" stroke-width="1"/><circle cx="485" cy="225" r="4" fill="#1a1714" stroke="#1a1714" stroke-width="1"/><path d="M 385 75 L 410 75 L 410 130 L 440 130 L 440 200 L 485 200 L 485 225" fill="none" stroke="#1a1714" stroke-width="4"/><line x1="410" y1="75" x2="410" y2="90" stroke="#c8c4c0" stroke-width="2"/><line x1="440" y1="130" x2="460" y2="130" stroke="#c8c4c0" stroke-width="2"/><text x="435" y="270" font-size="11" text-anchor="middle" font-weight="bold" fill="#1a1714">3. Pruning dead ends</text><rect x="525" y="50" width="150" height="200" fill="#f5f2ee" stroke="#1a1714" stroke-width="1"/><rect x="537" y="60" width="126" height="180" fill="#fdfcfb" stroke="#1a1714" stroke-width="1"/><line x1="537" y1="100" x2="597" y2="100" stroke="#1a1714" stroke-width="1.5"/><line x1="615" y1="100" x2="663" y2="100" stroke="#1a1714" stroke-width="1.5"/><line x1="585" y1="60" x2="585" y2="120" stroke="#1a1714" stroke-width="1.5"/><line x1="585" y1="140" x2="585" y2="190" stroke="#1a1714" stroke-width="1.5"/><line x1="615" y1="140" x2="615" y2="200" stroke="#1a1714" stroke-width="1.5"/><line x1="537" y1="180" x2="587" y2="180" stroke="#1a1714" stroke-width="1.5"/><circle cx="550" cy="75" r="4" fill="#1a1714" stroke="#1a1714" stroke-width="1"/><circle cx="650" cy="225" r="4" fill="#1a1714" stroke="#1a1714" stroke-width="1"/><path d="M 550 75 L 575 75 L 575 130 L 605 130 L 605 200 L 650 200 L 650 225" fill="none" stroke="#1a1714" stroke-width="4"/><text x="600" y="270" font-size="11" text-anchor="middle" font-weight="bold" fill="#1a1714">4. Single shortest path</text><text x="350" y="320" font-size="10" text-anchor="middle" font-style="italic" fill="#4a4540">No nervous system. Network self-pruning toward the optimal path between food sources.</text></svg>