<svg xmlns="http://www.w3.org/2000/svg" viewBox="0 0 700 360" font-family="Georgia, 'Times New Roman', serif" font-size="11" fill="#1a1714"><defs>  <marker id="arrow" markerWidth="8" markerHeight="6" refX="7" refY="3" orient="auto">    <polygon points="0 0, 8 3, 0 6" fill="#1a1714"/>  </marker>  <marker id="arrowL" markerWidth="10" markerHeight="8" refX="9" refY="4" orient="auto">    <polygon points="0 0, 10 4, 0 8" fill="#1a1714"/>  </marker></defs><rect width="700" height="360" fill="#fdfcfb"/><text x="350" y="22" font-size="13" text-anchor="middle" font-weight="bold" fill="#1a1714">E. coli temporal weighting — the cell computes a difference, not a level</text><line x1="90" y1="250" x2="610" y2="250" stroke="#8a8480" stroke-width="1"/><line x1="90" y1="70" x2="90" y2="270" stroke="#8a8480" stroke-width="1"/><line x1="90.0" y1="250" x2="90.0" y2="254" stroke="#8a8480" stroke-width="1"/><text x="90.0" y="268" font-size="10" text-anchor="middle" fill="#4a4540">-4 s</text><line x1="220.0" y1="250" x2="220.0" y2="254" stroke="#8a8480" stroke-width="1"/><text x="220.0" y="268" font-size="10" text-anchor="middle" fill="#4a4540">-3 s</text><line x1="350.0" y1="250" x2="350.0" y2="254" stroke="#8a8480" stroke-width="1"/><text x="350.0" y="268" font-size="10" text-anchor="middle" fill="#4a4540">-2 s</text><line x1="480.0" y1="250" x2="480.0" y2="254" stroke="#8a8480" stroke-width="1"/><text x="480.0" y="268" font-size="10" text-anchor="middle" fill="#4a4540">-1 s</text><line x1="610.0" y1="250" x2="610.0" y2="254" stroke="#8a8480" stroke-width="1"/><text x="610.0" y="268" font-size="10" text-anchor="middle" fill="#4a4540">0 s</text><text x="350" y="288" font-size="11" text-anchor="middle" font-weight="bold" fill="#1a1714">time before measurement (s)</text><text x="40" y="165" font-size="11" text-anchor="middle" font-weight="bold" font-style="italic" fill="#1a1714">weighting</text><text x="40" y="180" font-size="11" text-anchor="middle" font-weight="bold" font-style="italic" fill="#1a1714">coefficient</text><line x1="86" y1="80" x2="90" y2="80" stroke="#8a8480" stroke-width="1"/><text x="82" y="84" font-size="10" text-anchor="end" fill="#4a4540">+1</text><line x1="86" y1="165" x2="90" y2="165" stroke="#8a8480" stroke-width="1"/><text x="82" y="169" font-size="10" text-anchor="end" fill="#4a4540">0</text><line x1="86" y1="240" x2="90" y2="240" stroke="#8a8480" stroke-width="1"/><text x="82" y="244" font-size="10" text-anchor="end" fill="#4a4540">−1</text><line x1="90" y1="165" x2="610" y2="165" stroke="#c8c4c0" stroke-width="0.6" stroke-dasharray="2,3"/><rect x="570.0" y="80" width="80" height="85" fill="#1a1714" stroke="#1a1714" stroke-width="1"/><rect x="440.0" y="165" width="80" height="40" fill="#4a4540" stroke="#1a1714" stroke-width="1"/><rect x="310.0" y="165" width="80" height="50" fill="#4a4540" stroke="#1a1714" stroke-width="1"/><rect x="180.0" y="165" width="80" height="30" fill="#4a4540" stroke="#1a1714" stroke-width="1"/><text x="610.0" y="70" font-size="10" text-anchor="middle" font-weight="bold" fill="#1a1714">+1.0</text><text x="350" y="320" font-size="10" text-anchor="middle" font-style="italic" fill="#4a4540">The flagellar motor is gated by  (recent concentration) − (concentration ~3 s ago).</text></svg>