<svg xmlns="http://www.w3.org/2000/svg" viewBox="0 0 700 360" font-family="Georgia, 'Times New Roman', serif" font-size="11" fill="#1a1714"><defs>  <marker id="arrow" markerWidth="8" markerHeight="6" refX="7" refY="3" orient="auto">    <polygon points="0 0, 8 3, 0 6" fill="#1a1714"/>  </marker>  <marker id="arrowL" markerWidth="10" markerHeight="8" refX="9" refY="4" orient="auto">    <polygon points="0 0, 10 4, 0 8" fill="#1a1714"/>  </marker></defs><rect width="700" height="360" fill="#fdfcfb"/><text x="350" y="22" font-size="13" text-anchor="middle" font-weight="bold" fill="#1a1714">Fast synaptic transmission vs. neuromodulatory broadcast</text><text x="180" y="60" font-size="12" text-anchor="middle" font-weight="bold" fill="#1a1714">Fast synaptic</text><circle cx="80" cy="180" r="18" fill="#c8c4c0" stroke="#1a1714" stroke-width="1"/><text x="80" y="184" font-size="10" text-anchor="middle" font-weight="bold" fill="#1a1714">src</text><line x1="98" y1="180" x2="280" y2="180" stroke="#1a1714" stroke-width="2"/><text x="190" y="170" font-size="10" text-anchor="middle" font-style="italic" fill="#1a1714">labeled wire</text><circle cx="298" cy="180" r="18" fill="#c8c4c0" stroke="#1a1714" stroke-width="1"/><text x="298" y="184" font-size="10" text-anchor="middle" font-weight="bold" fill="#1a1714">tgt</text><text x="180" y="250" font-size="10" text-anchor="middle" font-style="italic" fill="#4a4540">one signal → one specific target</text><text x="180" y="268" font-size="10" text-anchor="middle" font-style="italic" fill="#4a4540">the specificity is the message</text><text x="520" y="60" font-size="12" text-anchor="middle" font-weight="bold" fill="#1a1714">Neuromodulatory broadcast</text><circle cx="420" cy="180" r="18" fill="#c8c4c0" stroke="#1a1714" stroke-width="1"/><text x="420" y="184" font-size="10" text-anchor="middle" font-weight="bold" fill="#1a1714">src</text><circle cx="420" cy="180" r="40" fill="none" stroke="#8a8480" stroke-width="0.6" stroke-dasharray="3,3"/><circle cx="420" cy="180" r="70" fill="none" stroke="#8a8480" stroke-width="0.6" stroke-dasharray="3,3"/><circle cx="420" cy="180" r="100" fill="none" stroke="#8a8480" stroke-width="0.6" stroke-dasharray="3,3"/><circle cx="420" cy="180" r="130" fill="none" stroke="#8a8480" stroke-width="0.6" stroke-dasharray="3,3"/><circle cx="540" cy="130" r="12" fill="#f5f2ee" stroke="#1a1714" stroke-width="1"/><text x="557" y="134" font-size="9" font-weight="bold" fill="#4a4540">g↕</text><circle cx="590" cy="200" r="12" fill="#f5f2ee" stroke="#1a1714" stroke-width="1"/><text x="607" y="204" font-size="9" font-weight="bold" fill="#4a4540">g↕</text><circle cx="560" cy="260" r="12" fill="#f5f2ee" stroke="#1a1714" stroke-width="1"/><text x="577" y="264" font-size="9" font-weight="bold" fill="#4a4540">g↕</text><circle cx="470" cy="250" r="12" fill="#f5f2ee" stroke="#1a1714" stroke-width="1"/><text x="487" y="254" font-size="9" font-weight="bold" fill="#4a4540">g↕</text><circle cx="510" cy="110" r="12" fill="#f5f2ee" stroke="#1a1714" stroke-width="1"/><text x="527" y="114" font-size="9" font-weight="bold" fill="#4a4540">g↕</text><text x="520" y="320" font-size="10" text-anchor="middle" font-style="italic" fill="#4a4540">one molecule → many neurons, each receptor-specific gain change</text></svg>