<svg xmlns="http://www.w3.org/2000/svg" viewBox="0 0 700 360" font-family="Georgia, 'Times New Roman', serif" font-size="11" fill="#1a1714"><defs>  <marker id="arrow" markerWidth="8" markerHeight="6" refX="7" refY="3" orient="auto">    <polygon points="0 0, 8 3, 0 6" fill="#1a1714"/>  </marker>  <marker id="arrowL" markerWidth="10" markerHeight="8" refX="9" refY="4" orient="auto">    <polygon points="0 0, 10 4, 0 8" fill="#1a1714"/>  </marker></defs><rect width="700" height="360" fill="#fdfcfb"/><text x="350" y="22" font-size="13" text-anchor="middle" font-weight="bold" fill="#1a1714">Radial vs. bilateral symmetry — geometry constrains the decision</text><text x="180" y="60" font-size="12" text-anchor="middle" font-weight="bold" fill="#1a1714">Radial symmetry  (hydra)</text><circle cx="180" cy="175" r="50" fill="#f5f2ee" stroke="#1a1714" stroke-width="1"/><line x1="230.0" y1="175.0" x2="270.0" y2="175.0" stroke="#1a1714" stroke-width="1.2"/><circle cx="270.0" cy="175.0" r="4" fill="#1a1714" stroke="#1a1714" stroke-width="1"/><line x1="215.35533905932738" y1="210.35533905932738" x2="243.63961030678928" y2="238.63961030678928" stroke="#1a1714" stroke-width="1.2"/><circle cx="243.63961030678928" cy="238.63961030678928" r="4" fill="#1a1714" stroke="#1a1714" stroke-width="1"/><line x1="180.0" y1="225.0" x2="180.0" y2="265.0" stroke="#1a1714" stroke-width="1.2"/><circle cx="180.0" cy="265.0" r="4" fill="#1a1714" stroke="#1a1714" stroke-width="1"/><line x1="144.64466094067262" y1="210.35533905932738" x2="116.36038969321072" y2="238.63961030678928" stroke="#1a1714" stroke-width="1.2"/><circle cx="116.36038969321072" cy="238.63961030678928" r="4" fill="#1a1714" stroke="#1a1714" stroke-width="1"/><line x1="130.0" y1="175.0" x2="90.0" y2="175.0" stroke="#1a1714" stroke-width="1.2"/><circle cx="90.0" cy="175.0" r="4" fill="#1a1714" stroke="#1a1714" stroke-width="1"/><line x1="144.64466094067262" y1="139.64466094067262" x2="116.3603896932107" y2="111.36038969321072" stroke="#1a1714" stroke-width="1.2"/><circle cx="116.3603896932107" cy="111.36038969321072" r="4" fill="#1a1714" stroke="#1a1714" stroke-width="1"/><line x1="180.0" y1="125.0" x2="179.99999999999997" y2="85.0" stroke="#1a1714" stroke-width="1.2"/><circle cx="179.99999999999997" cy="85.0" r="4" fill="#1a1714" stroke="#1a1714" stroke-width="1"/><line x1="215.35533905932738" y1="139.64466094067262" x2="243.63961030678925" y2="111.3603896932107" stroke="#1a1714" stroke-width="1.2"/><circle cx="243.63961030678925" cy="111.3603896932107" r="4" fill="#1a1714" stroke="#1a1714" stroke-width="1"/><text x="180" y="280" font-size="10" text-anchor="middle" font-style="italic" fill="#4a4540">sensors distributed around perimeter</text><text x="180" y="296" font-size="10" text-anchor="middle" fill="#4a4540">decision: any direction (360°)</text><text x="520" y="60" font-size="12" text-anchor="middle" font-weight="bold" fill="#1a1714">Bilateral symmetry  (C. elegans)</text><path d="M 420 175 Q 470 155, 520 175 Q 570 195, 620 175" fill="#f5f2ee" stroke="#1a1714" stroke-width="1"/><path d="M 420 175 Q 470 195, 520 175 Q 570 155, 620 175" fill="#f5f2ee" stroke="#1a1714" stroke-width="1"/><circle cx="425" cy="165" r="3" fill="#1a1714" stroke="#1a1714" stroke-width="1"/><circle cx="425" cy="175" r="3" fill="#1a1714" stroke="#1a1714" stroke-width="1"/><circle cx="425" cy="185" r="3" fill="#1a1714" stroke="#1a1714" stroke-width="1"/><circle cx="425" cy="180" r="3" fill="#1a1714" stroke="#1a1714" stroke-width="1"/><text x="405" y="145" font-size="10" font-weight="bold" font-style="italic" fill="#1a1714">Sensors clustered</text><text x="405" y="158" font-size="10" font-style="italic" fill="#1a1714">at head end →</text><line x1="530" y1="220" x2="600" y2="220" stroke="#1a1714" stroke-width="2" marker-end="url(#arrow)"/><text x="565" y="240" font-size="10" text-anchor="middle" font-style="italic" fill="#1a1714">forward</text><text x="520" y="280" font-size="10" text-anchor="middle" font-style="italic" fill="#4a4540">decision: continue forward, or turn?</text><text x="520" y="296" font-size="10" text-anchor="middle" fill="#4a4540">binary choice (with random pirouette)</text></svg>