<svg xmlns="http://www.w3.org/2000/svg" viewBox="0 0 700 360" font-family="Georgia, 'Times New Roman', serif" font-size="11" fill="#1a1714"><defs>  <marker id="arrow" markerWidth="8" markerHeight="6" refX="7" refY="3" orient="auto">    <polygon points="0 0, 8 3, 0 6" fill="#1a1714"/>  </marker>  <marker id="arrowL" markerWidth="10" markerHeight="8" refX="9" refY="4" orient="auto">    <polygon points="0 0, 10 4, 0 8" fill="#1a1714"/>  </marker></defs><rect width="700" height="360" fill="#fdfcfb"/><text x="350" y="22" font-size="13" text-anchor="middle" font-weight="bold" fill="#1a1714">Bateson 2011 — proboscis-extension rate across CS+/CS− continuum</text><line x1="90" y1="280" x2="630" y2="280" stroke="#8a8480" stroke-width="1"/><line x1="90" y1="80" x2="90" y2="280" stroke="#8a8480" stroke-width="1"/><line x1="90.0" y1="280" x2="90.0" y2="284" stroke="#8a8480" stroke-width="1"/><text x="90.0" y="298" font-size="9" text-anchor="middle" fill="#4a4540">CS−</text><line x1="225.0" y1="280" x2="225.0" y2="284" stroke="#8a8480" stroke-width="1"/><text x="225.0" y="298" font-size="9" text-anchor="middle" fill="#4a4540">ambig.−</text><line x1="360.0" y1="280" x2="360.0" y2="284" stroke="#8a8480" stroke-width="1"/><text x="360.0" y="298" font-size="9" text-anchor="middle" fill="#4a4540">midpoint</text><line x1="495.0" y1="280" x2="495.0" y2="284" stroke="#8a8480" stroke-width="1"/><text x="495.0" y="298" font-size="9" text-anchor="middle" fill="#4a4540">ambig.+</text><line x1="630.0" y1="280" x2="630.0" y2="284" stroke="#8a8480" stroke-width="1"/><text x="630.0" y="298" font-size="9" text-anchor="middle" fill="#4a4540">CS+</text><text x="350" y="318" font-size="11" text-anchor="middle" font-weight="bold" fill="#1a1714">Test odor position</text><line x1="86" y1="80" x2="90" y2="80" stroke="#8a8480" stroke-width="1"/><text x="82" y="84" font-size="10" text-anchor="end" fill="#4a4540">100</text><line x1="86" y1="160" x2="90" y2="160" stroke="#8a8480" stroke-width="1"/><text x="82" y="164" font-size="10" text-anchor="end" fill="#4a4540">50</text><line x1="86" y1="280" x2="90" y2="280" stroke="#8a8480" stroke-width="1"/><text x="82" y="284" font-size="10" text-anchor="end" fill="#4a4540">0</text><text x="35" y="180" font-size="11" text-anchor="middle" font-weight="bold" font-style="italic" fill="#1a1714">PER (%)</text><circle cx="90" cy="264.0" r="4" fill="#fdfcfb" stroke="#1a1714" stroke-width="1"/><circle cx="225.0" cy="236.0" r="4" fill="#fdfcfb" stroke="#1a1714" stroke-width="1"/><circle cx="360.0" cy="180.0" r="4" fill="#fdfcfb" stroke="#1a1714" stroke-width="1"/><circle cx="495.0" cy="120.0" r="4" fill="#fdfcfb" stroke="#1a1714" stroke-width="1"/><circle cx="630.0" cy="96.0" r="4" fill="#fdfcfb" stroke="#1a1714" stroke-width="1"/><path d="M 90 264.0 L 225.0 236.0 L 360.0 180.0 L 495.0 120.0 L 630.0 96.0 " fill="none" stroke="#1a1714" stroke-width="1.5" stroke-dasharray="4,3"/><circle cx="90" cy="270.0" r="4" fill="#1a1714" stroke="#1a1714" stroke-width="1"/><circle cx="225.0" cy="256.0" r="4" fill="#1a1714" stroke="#1a1714" stroke-width="1"/><circle cx="360.0" cy="224.0" r="4" fill="#1a1714" stroke="#1a1714" stroke-width="1"/><circle cx="495.0" cy="168.0" r="4" fill="#1a1714" stroke="#1a1714" stroke-width="1"/><circle cx="630.0" cy="104.0" r="4" fill="#1a1714" stroke="#1a1714" stroke-width="1"/><path d="M 90 270.0 L 225.0 256.0 L 360.0 224.0 L 495.0 168.0 L 630.0 104.0 " fill="none" stroke="#1a1714" stroke-width="2"/><text x="610" y="100" font-size="10" text-anchor="end" fill="#1a1714">○ Unshaken (control)</text><text x="610" y="116" font-size="10" text-anchor="end" fill="#1a1714">● Shaken (60 s)</text><text x="350" y="330" font-size="10" text-anchor="middle" font-style="italic" fill="#4a4540">Pessimistic shift biggest at the ambiguous midpoint and ambiguous-negative — not a uniform suppression.</text></svg>