<svg xmlns="http://www.w3.org/2000/svg" viewBox="0 0 700 360" font-family="Georgia, 'Times New Roman', serif" font-size="11" fill="#1a1714"><defs>  <marker id="arrow" markerWidth="8" markerHeight="6" refX="7" refY="3" orient="auto">    <polygon points="0 0, 8 3, 0 6" fill="#1a1714"/>  </marker>  <marker id="arrowL" markerWidth="10" markerHeight="8" refX="9" refY="4" orient="auto">    <polygon points="0 0, 10 4, 0 8" fill="#1a1714"/>  </marker></defs><rect width="700" height="360" fill="#fdfcfb"/><text x="350" y="22" font-size="13" text-anchor="middle" font-weight="bold" fill="#1a1714">Pattern completion in piriform cortex — Odor A</text><text x="180" y="60" font-size="12" text-anchor="middle" font-weight="bold" fill="#1a1714">Full odor A</text><text x="180" y="76" font-size="10" text-anchor="middle" font-style="italic" fill="#4a4540">40 / 1000 neurons active</text><circle cx="100" cy="95" r="3" fill="none" stroke="#c8c4c0" stroke-width="0.5"/><circle cx="100" cy="113" r="4" fill="#1a1714" stroke="#1a1714" stroke-width="1"/><circle cx="100" cy="131" r="3" fill="none" stroke="#c8c4c0" stroke-width="0.5"/><circle cx="100" cy="149" r="4" fill="#1a1714" stroke="#1a1714" stroke-width="1"/><circle cx="100" cy="167" r="4" fill="#1a1714" stroke="#1a1714" stroke-width="1"/><circle cx="100" cy="185" r="4" fill="#1a1714" stroke="#1a1714" stroke-width="1"/><circle cx="100" cy="203" r="3" fill="none" stroke="#c8c4c0" stroke-width="0.5"/><circle cx="100" cy="221" r="4" fill="#1a1714" stroke="#1a1714" stroke-width="1"/><circle cx="100" cy="239" r="4" fill="#1a1714" stroke="#1a1714" stroke-width="1"/><circle cx="100" cy="257" r="3" fill="none" stroke="#c8c4c0" stroke-width="0.5"/><circle cx="118" cy="95" r="3" fill="none" stroke="#c8c4c0" stroke-width="0.5"/><circle cx="118" cy="113" r="4" fill="#1a1714" stroke="#1a1714" stroke-width="1"/><circle cx="118" cy="131" r="4" fill="#1a1714" stroke="#1a1714" stroke-width="1"/><circle cx="118" cy="149" r="3" fill="none" stroke="#c8c4c0" stroke-width="0.5"/><circle cx="118" cy="167" r="3" fill="none" stroke="#c8c4c0" stroke-width="0.5"/><circle cx="118" cy="185" r="3" fill="none" stroke="#c8c4c0" stroke-width="0.5"/><circle cx="118" cy="203" r="3" fill="none" stroke="#c8c4c0" stroke-width="0.5"/><circle cx="118" cy="221" r="3" fill="none" stroke="#c8c4c0" stroke-width="0.5"/><circle cx="118" cy="239" r="4" fill="#1a1714" stroke="#1a1714" stroke-width="1"/><circle cx="118" cy="257" r="3" fill="none" stroke="#c8c4c0" stroke-width="0.5"/><circle cx="136" cy="95" r="4" fill="#1a1714" stroke="#1a1714" stroke-width="1"/><circle cx="136" cy="113" r="3" fill="none" stroke="#c8c4c0" stroke-width="0.5"/><circle cx="136" cy="131" r="3" fill="none" stroke="#c8c4c0" stroke-width="0.5"/><circle cx="136" cy="149" r="4" fill="#1a1714" stroke="#1a1714" stroke-width="1"/><circle cx="136" cy="167" r="4" fill="#1a1714" stroke="#1a1714" stroke-width="1"/><circle cx="136" cy="185" r="4" fill="#1a1714" stroke="#1a1714" stroke-width="1"/><circle cx="136" cy="203" r="3" fill="none" stroke="#c8c4c0" stroke-width="0.5"/><circle cx="136" cy="221" r="3" fill="none" stroke="#c8c4c0" stroke-width="0.5"/><circle cx="136" cy="239" r="3" fill="none" stroke="#c8c4c0" stroke-width="0.5"/><circle cx="136" cy="257" r="4" fill="#1a1714" stroke="#1a1714" stroke-width="1"/><circle cx="154" cy="95" r="4" fill="#1a1714" stroke="#1a1714" stroke-width="1"/><circle cx="154" cy="113" r="4" fill="#1a1714" stroke="#1a1714" stroke-width="1"/><circle cx="154" cy="131" r="3" fill="none" stroke="#c8c4c0" stroke-width="0.5"/><circle cx="154" cy="149" r="3" fill="none" stroke="#c8c4c0" stroke-width="0.5"/><circle cx="154" cy="167" r="3" fill="none" stroke="#c8c4c0" stroke-width="0.5"/><circle cx="154" cy="185" r="3" fill="none" stroke="#c8c4c0" stroke-width="0.5"/><circle cx="154" cy="203" r="3" fill="none" stroke="#c8c4c0" stroke-width="0.5"/><circle cx="154" cy="221" r="3" fill="none" stroke="#c8c4c0" stroke-width="0.5"/><circle cx="154" cy="239" r="4" fill="#1a1714" stroke="#1a1714" stroke-width="1"/><circle cx="154" cy="257" r="3" fill="none" stroke="#c8c4c0" stroke-width="0.5"/><circle cx="172" cy="95" r="4" fill="#1a1714" stroke="#1a1714" stroke-width="1"/><circle cx="172" cy="113" r="4" fill="#1a1714" stroke="#1a1714" stroke-width="1"/><circle cx="172" cy="131" r="3" fill="none" stroke="#c8c4c0" stroke-width="0.5"/><circle cx="172" cy="149" r="3" fill="none" stroke="#c8c4c0" stroke-width="0.5"/><circle cx="172" cy="167" r="3" fill="none" stroke="#c8c4c0" stroke-width="0.5"/><circle cx="172" cy="185" r="3" fill="none" stroke="#c8c4c0" stroke-width="0.5"/><circle cx="172" cy="203" r="3" fill="none" stroke="#c8c4c0" stroke-width="0.5"/><circle cx="172" cy="221" r="3" fill="none" stroke="#c8c4c0" stroke-width="0.5"/><circle cx="172" cy="239" r="3" fill="none" stroke="#c8c4c0" stroke-width="0.5"/><circle cx="172" cy="257" r="3" fill="none" stroke="#c8c4c0" stroke-width="0.5"/><circle cx="190" cy="95" r="4" fill="#1a1714" stroke="#1a1714" stroke-width="1"/><circle cx="190" cy="113" r="3" fill="none" stroke="#c8c4c0" stroke-width="0.5"/><circle cx="190" cy="131" r="3" fill="none" stroke="#c8c4c0" stroke-width="0.5"/><circle cx="190" cy="149" r="3" fill="none" stroke="#c8c4c0" stroke-width="0.5"/><circle cx="190" cy="167" r="3" fill="none" stroke="#c8c4c0" stroke-width="0.5"/><circle cx="190" cy="185" r="3" fill="none" stroke="#c8c4c0" stroke-width="0.5"/><circle cx="190" cy="203" r="4" fill="#1a1714" stroke="#1a1714" stroke-width="1"/><circle cx="190" cy="221" r="4" fill="#1a1714" stroke="#1a1714" stroke-width="1"/><circle cx="190" cy="239" r="3" fill="none" stroke="#c8c4c0" stroke-width="0.5"/><circle cx="190" cy="257" r="4" fill="#1a1714" stroke="#1a1714" stroke-width="1"/><circle cx="208" cy="95" r="4" fill="#1a1714" stroke="#1a1714" stroke-width="1"/><circle cx="208" cy="113" r="3" fill="none" stroke="#c8c4c0" stroke-width="0.5"/><circle cx="208" cy="131" r="3" fill="none" stroke="#c8c4c0" stroke-width="0.5"/><circle cx="208" cy="149" r="3" fill="none" stroke="#c8c4c0" stroke-width="0.5"/><circle cx="208" cy="167" r="3" fill="none" stroke="#c8c4c0" stroke-width="0.5"/><circle cx="208" cy="185" r="4" fill="#1a1714" stroke="#1a1714" stroke-width="1"/><circle cx="208" cy="203" r="3" fill="none" stroke="#c8c4c0" stroke-width="0.5"/><circle cx="208" cy="221" r="4" fill="#1a1714" stroke="#1a1714" stroke-width="1"/><circle cx="208" cy="239" r="4" fill="#1a1714" stroke="#1a1714" stroke-width="1"/><circle cx="208" cy="257" r="3" fill="none" stroke="#c8c4c0" stroke-width="0.5"/><circle cx="226" cy="95" r="3" fill="none" stroke="#c8c4c0" stroke-width="0.5"/><circle cx="226" cy="113" r="4" fill="#1a1714" stroke="#1a1714" stroke-width="1"/><circle cx="226" cy="131" r="3" fill="none" stroke="#c8c4c0" stroke-width="0.5"/><circle cx="226" cy="149" r="3" fill="none" stroke="#c8c4c0" stroke-width="0.5"/><circle cx="226" cy="167" r="3" fill="none" stroke="#c8c4c0" stroke-width="0.5"/><circle cx="226" cy="185" r="4" fill="#1a1714" stroke="#1a1714" stroke-width="1"/><circle cx="226" cy="203" r="4" fill="#1a1714" stroke="#1a1714" stroke-width="1"/><circle cx="226" cy="221" r="3" fill="none" stroke="#c8c4c0" stroke-width="0.5"/><circle cx="226" cy="239" r="4" fill="#1a1714" stroke="#1a1714" stroke-width="1"/><circle cx="226" cy="257" r="3" fill="none" stroke="#c8c4c0" stroke-width="0.5"/><circle cx="244" cy="95" r="4" fill="#1a1714" stroke="#1a1714" stroke-width="1"/><circle cx="244" cy="113" r="3" fill="none" stroke="#c8c4c0" stroke-width="0.5"/><circle cx="244" cy="131" r="3" fill="none" stroke="#c8c4c0" stroke-width="0.5"/><circle cx="244" cy="149" r="4" fill="#1a1714" stroke="#1a1714" stroke-width="1"/><circle cx="244" cy="167" r="3" fill="none" stroke="#c8c4c0" stroke-width="0.5"/><circle cx="244" cy="185" r="4" fill="#1a1714" stroke="#1a1714" stroke-width="1"/><circle cx="244" cy="203" r="3" fill="none" stroke="#c8c4c0" stroke-width="0.5"/><circle cx="244" cy="221" r="3" fill="none" stroke="#c8c4c0" stroke-width="0.5"/><circle cx="244" cy="239" r="3" fill="none" stroke="#c8c4c0" stroke-width="0.5"/><circle cx="244" cy="257" r="3" fill="none" stroke="#c8c4c0" stroke-width="0.5"/><circle cx="262" cy="95" r="3" fill="none" stroke="#c8c4c0" stroke-width="0.5"/><circle cx="262" cy="113" r="3" fill="none" stroke="#c8c4c0" stroke-width="0.5"/><circle cx="262" cy="131" r="4" fill="#1a1714" stroke="#1a1714" stroke-width="1"/><circle cx="262" cy="149" r="4" fill="#1a1714" stroke="#1a1714" stroke-width="1"/><circle cx="262" cy="167" r="3" fill="none" stroke="#c8c4c0" stroke-width="0.5"/><circle cx="262" cy="185" r="4" fill="#1a1714" stroke="#1a1714" stroke-width="1"/><circle cx="262" cy="203" r="4" fill="#1a1714" stroke="#1a1714" stroke-width="1"/><circle cx="262" cy="221" r="4" fill="#1a1714" stroke="#1a1714" stroke-width="1"/><circle cx="262" cy="239" r="3" fill="none" stroke="#c8c4c0" stroke-width="0.5"/><circle cx="262" cy="257" r="4" fill="#1a1714" stroke="#1a1714" stroke-width="1"/><line x1="100" y1="113" x2="100" y2="149" stroke="#1a1714" stroke-width="0.5" stroke-dasharray="2,2"/><line x1="100" y1="239" x2="118" y2="113" stroke="#1a1714" stroke-width="0.5" stroke-dasharray="2,2"/><line x1="136" y1="149" x2="136" y2="167" stroke="#1a1714" stroke-width="0.5" stroke-dasharray="2,2"/><line x1="154" y1="113" x2="154" y2="239" stroke="#1a1714" stroke-width="0.5" stroke-dasharray="2,2"/><line x1="190" y1="203" x2="190" y2="221" stroke="#1a1714" stroke-width="0.5" stroke-dasharray="2,2"/><line x1="208" y1="221" x2="208" y2="239" stroke="#1a1714" stroke-width="0.5" stroke-dasharray="2,2"/><text x="520" y="60" font-size="12" text-anchor="middle" font-weight="bold" fill="#1a1714">Dilute odor A</text><text x="520" y="76" font-size="10" text-anchor="middle" font-style="italic" fill="#4a4540">25 directly + 15 by completion</text><circle cx="440" cy="95" r="3" fill="none" stroke="#c8c4c0" stroke-width="0.5"/><circle cx="440" cy="113" r="4" fill="#1a1714" stroke="#1a1714" stroke-width="1"/><circle cx="440" cy="131" r="3" fill="none" stroke="#c8c4c0" stroke-width="0.5"/><circle cx="440" cy="149" r="4" fill="#1a1714" stroke="#1a1714" stroke-width="1"/><circle cx="440" cy="167" r="4" fill="#1a1714" stroke="#1a1714" stroke-width="1"/><circle cx="440" cy="185" r="4" fill="#1a1714" stroke="#1a1714" stroke-width="1"/><circle cx="440" cy="203" r="3" fill="none" stroke="#c8c4c0" stroke-width="0.5"/><circle cx="440" cy="221" r="4" fill="#1a1714" stroke="#1a1714" stroke-width="1"/><circle cx="440" cy="239" r="4" fill="#1a1714" stroke="#1a1714" stroke-width="1"/><circle cx="440" cy="257" r="3" fill="none" stroke="#c8c4c0" stroke-width="0.5"/><circle cx="458" cy="95" r="3" fill="none" stroke="#c8c4c0" stroke-width="0.5"/><circle cx="458" cy="113" r="4" fill="#1a1714" stroke="#1a1714" stroke-width="1"/><circle cx="458" cy="131" r="4" fill="#1a1714" stroke="#1a1714" stroke-width="1"/><circle cx="458" cy="149" r="3" fill="none" stroke="#c8c4c0" stroke-width="0.5"/><circle cx="458" cy="167" r="3" fill="none" stroke="#c8c4c0" stroke-width="0.5"/><circle cx="458" cy="185" r="3" fill="none" stroke="#c8c4c0" stroke-width="0.5"/><circle cx="458" cy="203" r="3" fill="none" stroke="#c8c4c0" stroke-width="0.5"/><circle cx="458" cy="221" r="3" fill="none" stroke="#c8c4c0" stroke-width="0.5"/><circle cx="458" cy="239" r="4" fill="#1a1714" stroke="#1a1714" stroke-width="1"/><circle cx="458" cy="257" r="3" fill="none" stroke="#c8c4c0" stroke-width="0.5"/><circle cx="476" cy="95" r="4" fill="#1a1714" stroke="#1a1714" stroke-width="1"/><circle cx="476" cy="113" r="3" fill="none" stroke="#c8c4c0" stroke-width="0.5"/><circle cx="476" cy="131" r="3" fill="none" stroke="#c8c4c0" stroke-width="0.5"/><circle cx="476" cy="149" r="4" fill="#1a1714" stroke="#1a1714" stroke-width="1"/><circle cx="476" cy="167" r="4" fill="#1a1714" stroke="#1a1714" stroke-width="1"/><circle cx="476" cy="185" r="4" fill="#1a1714" stroke="#1a1714" stroke-width="1"/><circle cx="476" cy="203" r="3" fill="none" stroke="#c8c4c0" stroke-width="0.5"/><circle cx="476" cy="221" r="3" fill="none" stroke="#c8c4c0" stroke-width="0.5"/><circle cx="476" cy="239" r="3" fill="none" stroke="#c8c4c0" stroke-width="0.5"/><circle cx="476" cy="257" r="4" fill="#1a1714" stroke="#1a1714" stroke-width="1"/><circle cx="494" cy="95" r="4" fill="#1a1714" stroke="#1a1714" stroke-width="1"/><circle cx="494" cy="113" r="4" fill="#1a1714" stroke="#1a1714" stroke-width="1"/><circle cx="494" cy="131" r="3" fill="none" stroke="#c8c4c0" stroke-width="0.5"/><circle cx="494" cy="149" r="3" fill="none" stroke="#c8c4c0" stroke-width="0.5"/><circle cx="494" cy="167" r="3" fill="none" stroke="#c8c4c0" stroke-width="0.5"/><circle cx="494" cy="185" r="3" fill="none" stroke="#c8c4c0" stroke-width="0.5"/><circle cx="494" cy="203" r="3" fill="none" stroke="#c8c4c0" stroke-width="0.5"/><circle cx="494" cy="221" r="3" fill="none" stroke="#c8c4c0" stroke-width="0.5"/><circle cx="494" cy="239" r="4" fill="#1a1714" stroke="#1a1714" stroke-width="1"/><circle cx="494" cy="257" r="3" fill="none" stroke="#c8c4c0" stroke-width="0.5"/><circle cx="512" cy="95" r="4" fill="#1a1714" stroke="#1a1714" stroke-width="1"/><circle cx="512" cy="113" r="4" fill="#1a1714" stroke="#1a1714" stroke-width="1"/><circle cx="512" cy="131" r="3" fill="none" stroke="#c8c4c0" stroke-width="0.5"/><circle cx="512" cy="149" r="3" fill="none" stroke="#c8c4c0" stroke-width="0.5"/><circle cx="512" cy="167" r="3" fill="none" stroke="#c8c4c0" stroke-width="0.5"/><circle cx="512" cy="185" r="3" fill="none" stroke="#c8c4c0" stroke-width="0.5"/><circle cx="512" cy="203" r="3" fill="none" stroke="#c8c4c0" stroke-width="0.5"/><circle cx="512" cy="221" r="3" fill="none" stroke="#c8c4c0" stroke-width="0.5"/><circle cx="512" cy="239" r="3" fill="none" stroke="#c8c4c0" stroke-width="0.5"/><circle cx="512" cy="257" r="3" fill="none" stroke="#c8c4c0" stroke-width="0.5"/><circle cx="530" cy="95" r="4" fill="#1a1714" stroke="#1a1714" stroke-width="1"/><circle cx="530" cy="113" r="3" fill="none" stroke="#c8c4c0" stroke-width="0.5"/><circle cx="530" cy="131" r="3" fill="none" stroke="#c8c4c0" stroke-width="0.5"/><circle cx="530" cy="149" r="3" fill="none" stroke="#c8c4c0" stroke-width="0.5"/><circle cx="530" cy="167" r="3" fill="none" stroke="#c8c4c0" stroke-width="0.5"/><circle cx="530" cy="185" r="3" fill="none" stroke="#c8c4c0" stroke-width="0.5"/><circle cx="530" cy="203" r="4" fill="#1a1714" stroke="#1a1714" stroke-width="1"/><circle cx="530" cy="221" r="4" fill="#1a1714" stroke="#1a1714" stroke-width="1"/><circle cx="530" cy="239" r="3" fill="none" stroke="#c8c4c0" stroke-width="0.5"/><circle cx="530" cy="257" r="4" fill="#1a1714" stroke="#1a1714" stroke-width="1"/><circle cx="548" cy="95" r="4" fill="#1a1714" stroke="#1a1714" stroke-width="1"/><circle cx="548" cy="113" r="3" fill="none" stroke="#c8c4c0" stroke-width="0.5"/><circle cx="548" cy="131" r="3" fill="none" stroke="#c8c4c0" stroke-width="0.5"/><circle cx="548" cy="149" r="3" fill="none" stroke="#c8c4c0" stroke-width="0.5"/><circle cx="548" cy="167" r="3" fill="none" stroke="#c8c4c0" stroke-width="0.5"/><circle cx="548" cy="185" r="4" fill="#1a1714" stroke="#1a1714" stroke-width="1"/><circle cx="548" cy="203" r="3" fill="none" stroke="#c8c4c0" stroke-width="0.5"/><circle cx="548" cy="221" r="4" fill="#c8c4c0" stroke="#1a1714" stroke-width="0.8"/><circle cx="548" cy="239" r="4" fill="#c8c4c0" stroke="#1a1714" stroke-width="0.8"/><circle cx="548" cy="257" r="3" fill="none" stroke="#c8c4c0" stroke-width="0.5"/><circle cx="566" cy="95" r="3" fill="none" stroke="#c8c4c0" stroke-width="0.5"/><circle cx="566" cy="113" r="4" fill="#c8c4c0" stroke="#1a1714" stroke-width="0.8"/><circle cx="566" cy="131" r="3" fill="none" stroke="#c8c4c0" stroke-width="0.5"/><circle cx="566" cy="149" r="3" fill="none" stroke="#c8c4c0" stroke-width="0.5"/><circle cx="566" cy="167" r="3" fill="none" stroke="#c8c4c0" stroke-width="0.5"/><circle cx="566" cy="185" r="4" fill="#c8c4c0" stroke="#1a1714" stroke-width="0.8"/><circle cx="566" cy="203" r="4" fill="#c8c4c0" stroke="#1a1714" stroke-width="0.8"/><circle cx="566" cy="221" r="3" fill="none" stroke="#c8c4c0" stroke-width="0.5"/><circle cx="566" cy="239" r="4" fill="#c8c4c0" stroke="#1a1714" stroke-width="0.8"/><circle cx="566" cy="257" r="3" fill="none" stroke="#c8c4c0" stroke-width="0.5"/><circle cx="584" cy="95" r="4" fill="#c8c4c0" stroke="#1a1714" stroke-width="0.8"/><circle cx="584" cy="113" r="3" fill="none" stroke="#c8c4c0" stroke-width="0.5"/><circle cx="584" cy="131" r="3" fill="none" stroke="#c8c4c0" stroke-width="0.5"/><circle cx="584" cy="149" r="4" fill="#c8c4c0" stroke="#1a1714" stroke-width="0.8"/><circle cx="584" cy="167" r="3" fill="none" stroke="#c8c4c0" stroke-width="0.5"/><circle cx="584" cy="185" r="4" fill="#c8c4c0" stroke="#1a1714" stroke-width="0.8"/><circle cx="584" cy="203" r="3" fill="none" stroke="#c8c4c0" stroke-width="0.5"/><circle cx="584" cy="221" r="3" fill="none" stroke="#c8c4c0" stroke-width="0.5"/><circle cx="584" cy="239" r="3" fill="none" stroke="#c8c4c0" stroke-width="0.5"/><circle cx="584" cy="257" r="3" fill="none" stroke="#c8c4c0" stroke-width="0.5"/><circle cx="602" cy="95" r="3" fill="none" stroke="#c8c4c0" stroke-width="0.5"/><circle cx="602" cy="113" r="3" fill="none" stroke="#c8c4c0" stroke-width="0.5"/><circle cx="602" cy="131" r="4" fill="#c8c4c0" stroke="#1a1714" stroke-width="0.8"/><circle cx="602" cy="149" r="4" fill="#c8c4c0" stroke="#1a1714" stroke-width="0.8"/><circle cx="602" cy="167" r="3" fill="none" stroke="#c8c4c0" stroke-width="0.5"/><circle cx="602" cy="185" r="4" fill="#c8c4c0" stroke="#1a1714" stroke-width="0.8"/><circle cx="602" cy="203" r="4" fill="#c8c4c0" stroke="#1a1714" stroke-width="0.8"/><circle cx="602" cy="221" r="4" fill="#c8c4c0" stroke="#1a1714" stroke-width="0.8"/><circle cx="602" cy="239" r="3" fill="none" stroke="#c8c4c0" stroke-width="0.5"/><circle cx="602" cy="257" r="4" fill="#c8c4c0" stroke="#1a1714" stroke-width="0.8"/><line x1="440" y1="113" x2="548" y2="221" stroke="#4a4540" stroke-width="0.6" marker-end="url(#arrow)"/><line x1="440" y1="239" x2="566" y2="239" stroke="#4a4540" stroke-width="0.6" marker-end="url(#arrow)"/><line x1="476" y1="149" x2="602" y2="149" stroke="#4a4540" stroke-width="0.6" marker-end="url(#arrow)"/><text x="350" y="320" font-size="10" text-anchor="middle" font-style="italic" fill="#4a4540">Recurrent collaterals fill in the missing cells. Downstream regions can't tell the dilute pattern from the full one.</text></svg>