<svg xmlns="http://www.w3.org/2000/svg" viewBox="0 0 700 360" font-family="Georgia, 'Times New Roman', serif" font-size="11" fill="#1a1714"><defs>  <marker id="arrow" markerWidth="8" markerHeight="6" refX="7" refY="3" orient="auto">    <polygon points="0 0, 8 3, 0 6" fill="#1a1714"/>  </marker>  <marker id="arrowL" markerWidth="10" markerHeight="8" refX="9" refY="4" orient="auto">    <polygon points="0 0, 10 4, 0 8" fill="#1a1714"/>  </marker></defs><rect width="700" height="360" fill="#fdfcfb"/><text x="350" y="22" font-size="13" text-anchor="middle" font-weight="bold" fill="#1a1714">Discrimination–generalization tension in representational space</text><circle cx="231.044189904334" cy="197.900102938078" r="3" fill="#1a1714" stroke="#1a1714" stroke-width="1"/><circle cx="232.08663423259134" cy="168.97260521840852" r="3" fill="#1a1714" stroke="#1a1714" stroke-width="1"/><circle cx="207.44936333870314" cy="172.53443184025787" r="3" fill="#1a1714" stroke="#1a1714" stroke-width="1"/><circle cx="278.91710833452123" cy="194.84513394440776" r="3" fill="#1a1714" stroke="#1a1714" stroke-width="1"/><circle cx="276.29076776113834" cy="188.7115954682782" r="3" fill="#1a1714" stroke="#1a1714" stroke-width="1"/><circle cx="253.81693721148153" cy="186.48643311499396" r="3" fill="#1a1714" stroke="#1a1714" stroke-width="1"/><circle cx="181.687811614082" cy="209.9337839067658" r="3" fill="#1a1714" stroke="#1a1714" stroke-width="1"/><circle cx="257.72346960631523" cy="197.45863133566803" r="3" fill="#1a1714" stroke="#1a1714" stroke-width="1"/><circle cx="180.8022406853052" cy="118.96391589535389" r="3" fill="#1a1714" stroke="#1a1714" stroke-width="1"/><circle cx="208.86346293175745" cy="163.6133753493368" r="3" fill="#1a1714" stroke="#1a1714" stroke-width="1"/><circle cx="250.69060971413543" cy="178.39308943205953" r="3" fill="#1a1714" stroke="#1a1714" stroke-width="1"/><circle cx="258.23412144473156" cy="157.52178375439271" r="3" fill="#1a1714" stroke="#1a1714" stroke-width="1"/><circle cx="250.80461022238083" cy="193.79540669007235" r="3" fill="#1a1714" stroke="#1a1714" stroke-width="1"/><circle cx="216.860192836375" cy="240.113561106681" r="3" fill="#1a1714" stroke="#1a1714" stroke-width="1"/><circle cx="259.48132745536094" cy="221.89518332926528" r="3" fill="#1a1714" stroke="#1a1714" stroke-width="1"/><circle cx="218.28834799310047" cy="154.11694363213294" r="3" fill="#1a1714" stroke="#1a1714" stroke-width="1"/><circle cx="227.9583662292891" cy="176.27525339615096" r="3" fill="#1a1714" stroke="#1a1714" stroke-width="1"/><circle cx="262.1227560761252" cy="188.69495387493922" r="3" fill="#1a1714" stroke="#1a1714" stroke-width="1"/><circle cx="224.3425786668742" cy="146.508069021817" r="3" fill="#1a1714" stroke="#1a1714" stroke-width="1"/><circle cx="221.77933914767115" cy="222.73224602149662" r="3" fill="#1a1714" stroke="#1a1714" stroke-width="1"/><circle cx="211.72187500922576" cy="188.56655615606263" r="3" fill="#1a1714" stroke="#1a1714" stroke-width="1"/><circle cx="254.92816411359573" cy="127.85899027986099" r="3" fill="#1a1714" stroke="#1a1714" stroke-width="1"/><circle cx="241.69660252320867" cy="225.7185259932475" r="3" fill="#1a1714" stroke="#1a1714" stroke-width="1"/><circle cx="169.4972661351408" cy="168.74421521270153" r="3" fill="#1a1714" stroke="#1a1714" stroke-width="1"/><circle cx="236.28512909810107" cy="151.3958894147045" r="3" fill="#1a1714" stroke="#1a1714" stroke-width="1"/><circle cx="257.4086503919739" cy="177.82020367734657" r="3" fill="#1a1714" stroke="#1a1714" stroke-width="1"/><circle cx="188.73701699960804" cy="208.974605747196" r="3" fill="#1a1714" stroke="#1a1714" stroke-width="1"/><circle cx="263.42674914373504" cy="213.10446273425947" r="3" fill="#1a1714" stroke="#1a1714" stroke-width="1"/><circle cx="290.4209094617411" cy="192.67852846219196" r="3" fill="#1a1714" stroke="#1a1714" stroke-width="1"/><circle cx="244.17459526225417" cy="134.52911703440626" r="3" fill="#1a1714" stroke="#1a1714" stroke-width="1"/><circle cx="261.54051244502415" cy="158.58843781363663" r="3" fill="#1a1714" stroke="#1a1714" stroke-width="1"/><circle cx="224.1554335133407" cy="135.73242789945368" r="3" fill="#1a1714" stroke="#1a1714" stroke-width="1"/><circle cx="206.1334985476206" cy="161.41076175844458" r="3" fill="#1a1714" stroke="#1a1714" stroke-width="1"/><circle cx="285.1093140076596" cy="108.88727833929636" r="3" fill="#1a1714" stroke="#1a1714" stroke-width="1"/><circle cx="188.98030562473966" cy="188.37728837310766" r="3" fill="#1a1714" stroke="#1a1714" stroke-width="1"/><circle cx="510.51724139547736" cy="200.2473932631185" r="3" fill="#4a4540" stroke="#4a4540" stroke-width="1"/><circle cx="393.5019853073817" cy="91.86178094890666" r="3" fill="#4a4540" stroke="#4a4540" stroke-width="1"/><circle cx="472.50890254988593" cy="154.2308321092242" r="3" fill="#4a4540" stroke="#4a4540" stroke-width="1"/><circle cx="420.80746992655236" cy="214.2079934496847" r="3" fill="#4a4540" stroke="#4a4540" stroke-width="1"/><circle cx="498.5625171463141" cy="185.50381581534702" r="3" fill="#4a4540" stroke="#4a4540" stroke-width="1"/><circle cx="468.6021778597735" cy="195.20269834412463" r="3" fill="#4a4540" stroke="#4a4540" stroke-width="1"/><circle cx="515.7901419925947" cy="201.66600111393848" r="3" fill="#4a4540" stroke="#4a4540" stroke-width="1"/><circle cx="478.15273386415197" cy="199.1708150770931" r="3" fill="#4a4540" stroke="#4a4540" stroke-width="1"/><circle cx="405.10913171057643" cy="224.86067314414316" r="3" fill="#4a4540" stroke="#4a4540" stroke-width="1"/><circle cx="493.4285729223645" cy="198.5368302629892" r="3" fill="#4a4540" stroke="#4a4540" stroke-width="1"/><circle cx="390.91435975621795" cy="157.8211991044782" r="3" fill="#4a4540" stroke="#4a4540" stroke-width="1"/><circle cx="489.4806257846618" cy="116.60750116175362" r="3" fill="#4a4540" stroke="#4a4540" stroke-width="1"/><circle cx="453.5592219735886" cy="215.68346851483025" r="3" fill="#4a4540" stroke="#4a4540" stroke-width="1"/><circle cx="414.1083985445987" cy="236.35371694312062" r="3" fill="#4a4540" stroke="#4a4540" stroke-width="1"/><circle cx="479.3187390128202" cy="174.7451437052075" r="3" fill="#4a4540" stroke="#4a4540" stroke-width="1"/><circle cx="471.37033873516515" cy="202.74408470058034" r="3" fill="#4a4540" stroke="#4a4540" stroke-width="1"/><circle cx="464.2137804171241" cy="220.09810825502865" r="3" fill="#4a4540" stroke="#4a4540" stroke-width="1"/><circle cx="436.84594019866614" cy="165.484234543733" r="3" fill="#4a4540" stroke="#4a4540" stroke-width="1"/><circle cx="496.4589593575758" cy="180.9379629541547" r="3" fill="#4a4540" stroke="#4a4540" stroke-width="1"/><circle cx="429.1837571608196" cy="213.1259342922624" r="3" fill="#4a4540" stroke="#4a4540" stroke-width="1"/><circle cx="511.29241510059614" cy="164.43108701954884" r="3" fill="#4a4540" stroke="#4a4540" stroke-width="1"/><circle cx="411.7002384493827" cy="175.28381294074106" r="3" fill="#4a4540" stroke="#4a4540" stroke-width="1"/><circle cx="454.78434187259165" cy="169.5700122628247" r="3" fill="#4a4540" stroke="#4a4540" stroke-width="1"/><circle cx="509.16696062521476" cy="144.0572234129472" r="3" fill="#4a4540" stroke="#4a4540" stroke-width="1"/><circle cx="504.1205325693413" cy="135.60873073242334" r="3" fill="#4a4540" stroke="#4a4540" stroke-width="1"/><circle cx="432.4536186486045" cy="202.1032447614361" r="3" fill="#4a4540" stroke="#4a4540" stroke-width="1"/><circle cx="499.50416069422914" cy="210.0650822588739" r="3" fill="#4a4540" stroke="#4a4540" stroke-width="1"/><circle cx="472.08286611672105" cy="184.98247182834646" r="3" fill="#4a4540" stroke="#4a4540" stroke-width="1"/><circle cx="465.33686266598954" cy="200.13480947919146" r="3" fill="#4a4540" stroke="#4a4540" stroke-width="1"/><circle cx="453.8330889785298" cy="189.71025988965542" r="3" fill="#4a4540" stroke="#4a4540" stroke-width="1"/><circle cx="480.0454286771542" cy="180.0293816765809" r="3" fill="#4a4540" stroke="#4a4540" stroke-width="1"/><circle cx="486.73938359882754" cy="199.80573451991205" r="3" fill="#4a4540" stroke="#4a4540" stroke-width="1"/><circle cx="530.3721268727769" cy="191.37299228704524" r="3" fill="#4a4540" stroke="#4a4540" stroke-width="1"/><circle cx="445.0342466819868" cy="166.96070744304953" r="3" fill="#4a4540" stroke="#4a4540" stroke-width="1"/><circle cx="459.54130407820105" cy="212.3324611548698" r="3" fill="#4a4540" stroke="#4a4540" stroke-width="1"/><circle cx="240" cy="180" r="70" fill="none" stroke="#1a1714" stroke-width="1.2" stroke-dasharray="5,3"/><circle cx="460" cy="180" r="70" fill="none" stroke="#1a1714" stroke-width="1.2" stroke-dasharray="5,3"/><text x="240" y="85" font-size="12" text-anchor="middle" font-weight="bold" fill="#1a1714">Category A</text><text x="460" y="85" font-size="12" text-anchor="middle" font-weight="bold" fill="#1a1714">Category B</text><line x1="190" y1="230" x2="230" y2="190" stroke="#1a1714" stroke-width="1" marker-end="url(#arrow)"/><line x1="290" y1="230" x2="250" y2="190" stroke="#1a1714" stroke-width="1" marker-end="url(#arrow)"/><text x="240" y="255" font-size="10" text-anchor="middle" font-style="italic" fill="#4a4540">generalization →</text><text x="240" y="270" font-size="10" text-anchor="middle" font-style="italic" fill="#4a4540">collapse intra-spread</text><line x1="315" y1="180" x2="385" y2="180" stroke="#1a1714" stroke-width="2" marker-end="url(#arrow)"/><line x1="385" y1="180" x2="315" y2="180" stroke="#1a1714" stroke-width="2" marker-end="url(#arrow)"/><text x="350.0" y="174" font-size="10" text-anchor="middle" font-weight="bold" font-style="italic" fill="#1a1714">← discrimination →</text><text x="350.0" y="192" font-size="10" text-anchor="middle" font-style="italic" fill="#4a4540">preserve inter-gap</text><text x="350" y="320" font-size="10" text-anchor="middle" font-style="italic" fill="#4a4540">Solving both at once requires different operations: dimensionality expansion + sparse coding (gap),</text><text x="350" y="336" font-size="10" text-anchor="middle" font-style="italic" fill="#4a4540">and recurrent completion (collapse) — the three operations of Chapter 6.</text></svg>