<svg xmlns="http://www.w3.org/2000/svg" viewBox="0 0 700 360" font-family="Georgia, 'Times New Roman', serif" font-size="11" fill="#1a1714"><defs>  <marker id="arrow" markerWidth="8" markerHeight="6" refX="7" refY="3" orient="auto">    <polygon points="0 0, 8 3, 0 6" fill="#1a1714"/>  </marker>  <marker id="arrowL" markerWidth="10" markerHeight="8" refX="9" refY="4" orient="auto">    <polygon points="0 0, 10 4, 0 8" fill="#1a1714"/>  </marker></defs><rect width="700" height="360" fill="#fdfcfb"/><text x="350" y="22" font-size="13" text-anchor="middle" font-weight="bold" fill="#1a1714">Three-layer pallial blueprint across vertebrate phylogeny</text><rect x="62" y="186" width="56" height="28" fill="#c8c4c0" stroke="#1a1714" stroke-width="1"/><text x="90" y="198" font-size="10" text-anchor="middle" font-weight="bold" fill="#1a1714">common</text><text x="90" y="212" font-size="10" text-anchor="middle" font-weight="bold" fill="#1a1714">ancestor</text><text x="90" y="178" font-size="9" text-anchor="middle" font-style="italic" fill="#4a4540">[3-layer ✓]</text><rect x="182" y="96" width="56" height="28" fill="#c8c4c0" stroke="#1a1714" stroke-width="1"/><text x="210" y="108" font-size="10" text-anchor="middle" font-weight="bold" fill="#1a1714">lamprey</text><text x="210" y="88" font-size="9" text-anchor="middle" font-style="italic" fill="#4a4540">[3-layer ✓]</text><rect x="292" y="76" width="56" height="28" fill="#c8c4c0" stroke="#1a1714" stroke-width="1"/><text x="320" y="88" font-size="10" text-anchor="middle" font-weight="bold" fill="#1a1714">fish</text><text x="320" y="68" font-size="9" text-anchor="middle" font-style="italic" fill="#4a4540">[3-layer ✓]</text><rect x="402" y="66" width="56" height="28" fill="#c8c4c0" stroke="#1a1714" stroke-width="1"/><text x="430" y="78" font-size="10" text-anchor="middle" font-weight="bold" fill="#1a1714">reptile</text><text x="430" y="58" font-size="9" text-anchor="middle" font-style="italic" fill="#4a4540">[3-layer ✓]</text><rect x="512" y="56" width="56" height="28" fill="#c8c4c0" stroke="#1a1714" stroke-width="1"/><text x="540" y="68" font-size="10" text-anchor="middle" font-weight="bold" fill="#1a1714">mammal</text><text x="540" y="48" font-size="9" text-anchor="middle" font-style="italic" fill="#4a4540">[3-layer ✓]</text><rect x="612" y="66" width="56" height="28" fill="#c8c4c0" stroke="#1a1714" stroke-width="1"/><text x="640" y="78" font-size="10" text-anchor="middle" font-weight="bold" fill="#1a1714">bird</text><text x="640" y="58" font-size="9" text-anchor="middle" font-style="italic" fill="#4a4540">[3-layer ✓]</text><line x1="118" y1="200" x2="182" y2="110" stroke="#1a1714" stroke-width="1"/><line x1="238" y1="110" x2="292" y2="90" stroke="#1a1714" stroke-width="1"/><line x1="348" y1="90" x2="402" y2="80" stroke="#1a1714" stroke-width="1"/><line x1="458" y1="80" x2="512" y2="70" stroke="#1a1714" stroke-width="1"/><line x1="458" y1="80" x2="612" y2="80" stroke="#1a1714" stroke-width="1"/><rect x="70" y="250" width="560" height="70" fill="#f5f2ee" stroke="#1a1714" stroke-width="1"/><text x="350" y="268" font-size="11" text-anchor="middle" font-weight="bold" fill="#1a1714">Three-layer pallial blueprint (preserved at every node):</text><text x="350" y="284" font-size="10" text-anchor="middle" fill="#1a1714">1. Excitatory projection layer    2. Inhibitory interneurons    3. Recurrent collaterals</text><text x="350" y="304" font-size="10" text-anchor="middle" font-style="italic" fill="#4a4540">Cortex is not a mammalian invention. The blueprint is older than vertebrates' diversification.</text></svg>