<svg xmlns="http://www.w3.org/2000/svg" viewBox="0 0 700 360" font-family="Georgia, 'Times New Roman', serif" font-size="11" fill="#1a1714"><defs>  <marker id="arrow" markerWidth="8" markerHeight="6" refX="7" refY="3" orient="auto">    <polygon points="0 0, 8 3, 0 6" fill="#1a1714"/>  </marker>  <marker id="arrowL" markerWidth="10" markerHeight="8" refX="9" refY="4" orient="auto">    <polygon points="0 0, 10 4, 0 8" fill="#1a1714"/>  </marker></defs><rect width="700" height="360" fill="#fdfcfb"/><text x="350" y="22" font-size="13" text-anchor="middle" font-weight="bold" fill="#1a1714">Hippocampal–entorhinal coordinate system</text><text x="130" y="60" font-size="12" text-anchor="middle" font-weight="bold" fill="#1a1714">Place cells</text><rect x="50" y="80" width="160" height="160" fill="#f5f2ee" stroke="#1a1714" stroke-width="1"/><circle cx="90" cy="110" r="18" fill="#1a1714" stroke="#1a1714" stroke-width="1"/><circle cx="160" cy="130" r="22" fill="#4a4540" stroke="#4a4540" stroke-width="1"/><circle cx="110" cy="200" r="24" fill="#8a8480" stroke="#8a8480" stroke-width="1"/><circle cx="180" cy="210" r="18" fill="#1a1714" stroke="#1a1714" stroke-width="1"/><text x="130" y="260" font-size="10" text-anchor="middle" font-style="italic" fill="#4a4540">each cell fires in one place</text><text x="380" y="60" font-size="12" text-anchor="middle" font-weight="bold" fill="#1a1714">Grid cells</text><rect x="300" y="80" width="160" height="160" fill="#f5f2ee" stroke="#1a1714" stroke-width="1"/><circle cx="310" cy="95" r="4" fill="#1a1714" stroke="#1a1714" stroke-width="1"/><circle cx="317" cy="99" r="3" fill="#8a8480" stroke="#8a8480" stroke-width="1"/><circle cx="327" cy="125" r="4" fill="#1a1714" stroke="#1a1714" stroke-width="1"/><circle cx="334" cy="129" r="3" fill="#8a8480" stroke="#8a8480" stroke-width="1"/><circle cx="310" cy="155" r="4" fill="#1a1714" stroke="#1a1714" stroke-width="1"/><circle cx="317" cy="159" r="3" fill="#8a8480" stroke="#8a8480" stroke-width="1"/><circle cx="327" cy="185" r="4" fill="#1a1714" stroke="#1a1714" stroke-width="1"/><circle cx="334" cy="189" r="3" fill="#8a8480" stroke="#8a8480" stroke-width="1"/><circle cx="310" cy="215" r="4" fill="#1a1714" stroke="#1a1714" stroke-width="1"/><circle cx="317" cy="219" r="3" fill="#8a8480" stroke="#8a8480" stroke-width="1"/><circle cx="345" cy="95" r="4" fill="#1a1714" stroke="#1a1714" stroke-width="1"/><circle cx="352" cy="99" r="3" fill="#8a8480" stroke="#8a8480" stroke-width="1"/><circle cx="362" cy="125" r="4" fill="#1a1714" stroke="#1a1714" stroke-width="1"/><circle cx="369" cy="129" r="3" fill="#8a8480" stroke="#8a8480" stroke-width="1"/><circle cx="345" cy="155" r="4" fill="#1a1714" stroke="#1a1714" stroke-width="1"/><circle cx="352" cy="159" r="3" fill="#8a8480" stroke="#8a8480" stroke-width="1"/><circle cx="362" cy="185" r="4" fill="#1a1714" stroke="#1a1714" stroke-width="1"/><circle cx="369" cy="189" r="3" fill="#8a8480" stroke="#8a8480" stroke-width="1"/><circle cx="345" cy="215" r="4" fill="#1a1714" stroke="#1a1714" stroke-width="1"/><circle cx="352" cy="219" r="3" fill="#8a8480" stroke="#8a8480" stroke-width="1"/><circle cx="380" cy="95" r="4" fill="#1a1714" stroke="#1a1714" stroke-width="1"/><circle cx="387" cy="99" r="3" fill="#8a8480" stroke="#8a8480" stroke-width="1"/><circle cx="397" cy="125" r="4" fill="#1a1714" stroke="#1a1714" stroke-width="1"/><circle cx="404" cy="129" r="3" fill="#8a8480" stroke="#8a8480" stroke-width="1"/><circle cx="380" cy="155" r="4" fill="#1a1714" stroke="#1a1714" stroke-width="1"/><circle cx="387" cy="159" r="3" fill="#8a8480" stroke="#8a8480" stroke-width="1"/><circle cx="397" cy="185" r="4" fill="#1a1714" stroke="#1a1714" stroke-width="1"/><circle cx="404" cy="189" r="3" fill="#8a8480" stroke="#8a8480" stroke-width="1"/><circle cx="380" cy="215" r="4" fill="#1a1714" stroke="#1a1714" stroke-width="1"/><circle cx="387" cy="219" r="3" fill="#8a8480" stroke="#8a8480" stroke-width="1"/><circle cx="415" cy="95" r="4" fill="#1a1714" stroke="#1a1714" stroke-width="1"/><circle cx="422" cy="99" r="3" fill="#8a8480" stroke="#8a8480" stroke-width="1"/><circle cx="432" cy="125" r="4" fill="#1a1714" stroke="#1a1714" stroke-width="1"/><circle cx="439" cy="129" r="3" fill="#8a8480" stroke="#8a8480" stroke-width="1"/><circle cx="415" cy="155" r="4" fill="#1a1714" stroke="#1a1714" stroke-width="1"/><circle cx="422" cy="159" r="3" fill="#8a8480" stroke="#8a8480" stroke-width="1"/><circle cx="432" cy="185" r="4" fill="#1a1714" stroke="#1a1714" stroke-width="1"/><circle cx="439" cy="189" r="3" fill="#8a8480" stroke="#8a8480" stroke-width="1"/><circle cx="415" cy="215" r="4" fill="#1a1714" stroke="#1a1714" stroke-width="1"/><circle cx="422" cy="219" r="3" fill="#8a8480" stroke="#8a8480" stroke-width="1"/><circle cx="450" cy="95" r="4" fill="#1a1714" stroke="#1a1714" stroke-width="1"/><circle cx="457" cy="99" r="3" fill="#8a8480" stroke="#8a8480" stroke-width="1"/><circle cx="450" cy="155" r="4" fill="#1a1714" stroke="#1a1714" stroke-width="1"/><circle cx="457" cy="159" r="3" fill="#8a8480" stroke="#8a8480" stroke-width="1"/><circle cx="450" cy="215" r="4" fill="#1a1714" stroke="#1a1714" stroke-width="1"/><circle cx="457" cy="219" r="3" fill="#8a8480" stroke="#8a8480" stroke-width="1"/><text x="380" y="260" font-size="10" text-anchor="middle" font-style="italic" fill="#4a4540">hexagonal lattice across space</text><text x="610" y="60" font-size="12" text-anchor="middle" font-weight="bold" fill="#1a1714">Head-direction</text><circle cx="610" cy="160" r="70" fill="#f5f2ee" stroke="#1a1714" stroke-width="1"/><text x="610.0" y="86.0" font-size="9" text-anchor="middle" fill="#4a4540">0°</text><text x="688.0" y="164.0" font-size="9" text-anchor="middle" fill="#4a4540">90°</text><text x="610.0" y="242.0" font-size="9" text-anchor="middle" fill="#4a4540">180°</text><text x="532.0" y="164.0" font-size="9" text-anchor="middle" fill="#4a4540">270°</text><path d="M 610.0 117.5 L 612.8 115.4 L 615.9 113.5 L 619.2 111.9 L 622.7 110.7 L 626.3 109.8 L 630.1 109.3 L 633.8 109.3 L 637.6 109.8 L 641.3 110.7 L 644.8 112.2 L 648.0 114.0 L 651.0 116.3 L 653.7 119.0 L 656.0 122.0 L 657.8 125.2 L 659.3 128.7 L 660.2 132.4 L 660.7 136.2 L 660.7 139.9 L 660.2 143.7 L 659.3 147.3 L 658.1 150.8 L 656.5 154.1 L 654.6 157.2 L 652.5 160.0 L 650.2 162.5 L 647.8 164.8 L 645.4 166.8 L 643.0 168.5 L 640.6 170.0 L 638.4 171.2 L 636.3 172.4 L 634.3 173.4 L 632.5 174.3 L 630.9 175.2 L 629.5 176.1 L 628.2 177.1 L 627.1 178.2 L 625.9 179.3 L 624.7 180.2 L 623.4 181.1 L 622.0 181.9 L 620.6 182.6 L 619.2 183.2 L 617.7 183.8 L 616.2 184.2 L 614.7 184.6 L 613.1 184.8 L 611.6 185.0 L 610.0 185.0 L 608.4 185.0 L 606.9 184.8 L 605.3 184.6 L 603.8 184.2 L 602.3 183.8 L 600.8 183.2 L 599.4 182.6 L 598.0 181.9 L 596.6 181.1 L 595.3 180.2 L 594.1 179.3 L 592.9 178.2 L 591.8 177.1 L 590.7 175.9 L 589.8 174.7 L 588.9 173.4 L 588.1 172.0 L 587.4 170.6 L 586.8 169.2 L 586.2 167.7 L 585.8 166.2 L 585.4 164.7 L 585.2 163.1 L 585.0 161.6 L 585.0 160.0 L 585.0 158.4 L 585.2 156.9 L 585.4 155.3 L 585.8 153.8 L 586.2 152.3 L 586.8 150.8 L 587.4 149.4 L 588.1 148.0 L 588.9 146.6 L 589.8 145.3 L 590.7 144.1 L 591.8 142.9 L 592.9 141.8 L 593.9 140.5 L 594.8 139.1 L 595.7 137.5 L 596.6 135.7 L 597.6 133.7 L 598.8 131.6 L 600.0 129.4 L 601.5 127.0 L 603.2 124.6 L 605.2 122.2 L 607.5 119.8 L 610.0 117.5 " fill="#c8c4c0" stroke="#1a1714" stroke-width="1.5"/><text x="610" y="260" font-size="10" text-anchor="middle" font-style="italic" fill="#4a4540">fires when heading = preferred</text><text x="350" y="320" font-size="10" text-anchor="middle" font-style="italic" fill="#4a4540">Together: where you are, the lattice you're in, and which way you face — three independent codes.</text></svg>