<svg xmlns="http://www.w3.org/2000/svg" viewBox="0 0 700 360" font-family="Georgia, 'Times New Roman', serif" font-size="11" fill="#1a1714"><defs>  <marker id="arrow" markerWidth="8" markerHeight="6" refX="7" refY="3" orient="auto">    <polygon points="0 0, 8 3, 0 6" fill="#1a1714"/>  </marker>  <marker id="arrowL" markerWidth="10" markerHeight="8" refX="9" refY="4" orient="auto">    <polygon points="0 0, 10 4, 0 8" fill="#1a1714"/>  </marker></defs><rect width="700" height="360" fill="#fdfcfb"/><text x="350" y="22" font-size="13" text-anchor="middle" font-weight="bold" fill="#1a1714">Great bowerbird — forced perspective court layout</text><text x="180" y="60" font-size="12" text-anchor="middle" font-weight="bold" fill="#1a1714">Top view</text><rect x="60" y="80" width="240" height="200" fill="#f5f2ee" stroke="#1a1714" stroke-width="1"/><line x1="120" y1="110" x2="120" y2="200" stroke="#1a1714" stroke-width="0.6"/><line x1="220" y1="110" x2="220" y2="200" stroke="#1a1714" stroke-width="0.6"/><line x1="125" y1="110" x2="125" y2="200" stroke="#1a1714" stroke-width="0.6"/><line x1="225" y1="110" x2="225" y2="200" stroke="#1a1714" stroke-width="0.6"/><line x1="130" y1="110" x2="130" y2="200" stroke="#1a1714" stroke-width="0.6"/><line x1="230" y1="110" x2="230" y2="200" stroke="#1a1714" stroke-width="0.6"/><line x1="135" y1="110" x2="135" y2="200" stroke="#1a1714" stroke-width="0.6"/><line x1="235" y1="110" x2="235" y2="200" stroke="#1a1714" stroke-width="0.6"/><line x1="140" y1="110" x2="140" y2="200" stroke="#1a1714" stroke-width="0.6"/><line x1="240" y1="110" x2="240" y2="200" stroke="#1a1714" stroke-width="0.6"/><line x1="145" y1="110" x2="145" y2="200" stroke="#1a1714" stroke-width="0.6"/><line x1="245" y1="110" x2="245" y2="200" stroke="#1a1714" stroke-width="0.6"/><line x1="150" y1="110" x2="150" y2="200" stroke="#1a1714" stroke-width="0.6"/><line x1="250" y1="110" x2="250" y2="200" stroke="#1a1714" stroke-width="0.6"/><line x1="155" y1="110" x2="155" y2="200" stroke="#1a1714" stroke-width="0.6"/><line x1="255" y1="110" x2="255" y2="200" stroke="#1a1714" stroke-width="0.6"/><text x="180" y="100" font-size="9" text-anchor="middle" font-style="italic" fill="#4a4540">stick avenue (female enters here)</text><circle cx="110" cy="240" r="1.5" fill="#1a1714" stroke="#1a1714" stroke-width="1"/><circle cx="140" cy="240" r="2.5" fill="#1a1714" stroke="#1a1714" stroke-width="1"/><circle cx="170" cy="240" r="4.0" fill="#1a1714" stroke="#1a1714" stroke-width="1"/><circle cx="200" cy="240" r="6.0" fill="#1a1714" stroke="#1a1714" stroke-width="1"/><circle cx="230" cy="240" r="9.0" fill="#1a1714" stroke="#1a1714" stroke-width="1"/><circle cx="260" cy="240" r="12.0" fill="#1a1714" stroke="#1a1714" stroke-width="1"/><text x="180" y="270" font-size="10" text-anchor="middle" font-style="italic" fill="#4a4540">graded objects: small near, large far</text><line x1="180" y1="200" x2="110" y2="240" stroke="#c8c4c0" stroke-width="0.6" stroke-dasharray="2,2"/><line x1="180" y1="200" x2="140" y2="240" stroke="#c8c4c0" stroke-width="0.6" stroke-dasharray="2,2"/><line x1="180" y1="200" x2="170" y2="240" stroke="#c8c4c0" stroke-width="0.6" stroke-dasharray="2,2"/><line x1="180" y1="200" x2="200" y2="240" stroke="#c8c4c0" stroke-width="0.6" stroke-dasharray="2,2"/><line x1="180" y1="200" x2="230" y2="240" stroke="#c8c4c0" stroke-width="0.6" stroke-dasharray="2,2"/><line x1="180" y1="200" x2="260" y2="240" stroke="#c8c4c0" stroke-width="0.6" stroke-dasharray="2,2"/><text x="520" y="60" font-size="12" text-anchor="middle" font-weight="bold" fill="#1a1714">From female's perspective</text><rect x="400" y="80" width="240" height="200" fill="#f5f2ee" stroke="#1a1714" stroke-width="1"/><circle cx="440" cy="180" r="7" fill="#1a1714" stroke="#1a1714" stroke-width="1"/><circle cx="470" cy="180" r="7" fill="#1a1714" stroke="#1a1714" stroke-width="1"/><circle cx="500" cy="180" r="7" fill="#1a1714" stroke="#1a1714" stroke-width="1"/><circle cx="530" cy="180" r="7" fill="#1a1714" stroke="#1a1714" stroke-width="1"/><circle cx="560" cy="180" r="7" fill="#1a1714" stroke="#1a1714" stroke-width="1"/><circle cx="590" cy="180" r="7" fill="#1a1714" stroke="#1a1714" stroke-width="1"/><text x="520" y="220" font-size="10" text-anchor="middle" font-style="italic" fill="#4a4540">all objects appear uniform size</text><text x="520" y="240" font-size="10" text-anchor="middle" font-style="italic" fill="#4a4540">(forced perspective inflates the male)</text><text x="350" y="320" font-size="10" text-anchor="middle" font-style="italic" fill="#4a4540">Males re-arrange the gradient after viewing from inside the avenue. Sensitive to viewer.</text></svg>