<svg xmlns="http://www.w3.org/2000/svg" viewBox="0 0 700 360" font-family="Georgia, 'Times New Roman', serif" font-size="11" fill="#1a1714"><defs>  <marker id="arrow" markerWidth="8" markerHeight="6" refX="7" refY="3" orient="auto">    <polygon points="0 0, 8 3, 0 6" fill="#1a1714"/>  </marker>  <marker id="arrowL" markerWidth="10" markerHeight="8" refX="9" refY="4" orient="auto">    <polygon points="0 0, 10 4, 0 8" fill="#1a1714"/>  </marker></defs><rect width="700" height="360" fill="#fdfcfb"/><text x="350" y="22" font-size="13" text-anchor="middle" font-weight="bold" fill="#1a1714">Hampton 2001 — chosen vs. forced trials across delays</text><line x1="100" y1="280" x2="580" y2="280" stroke="#8a8480" stroke-width="1"/><line x1="100" y1="80" x2="100" y2="280" stroke="#8a8480" stroke-width="1"/><text x="180" y="298" font-size="11" text-anchor="middle" fill="#4a4540">short</text><text x="340" y="298" font-size="11" text-anchor="middle" fill="#4a4540">medium</text><text x="500" y="298" font-size="11" text-anchor="middle" fill="#4a4540">long</text><text x="350" y="318" font-size="11" text-anchor="middle" font-weight="bold" fill="#1a1714">delay length</text><line x1="96" y1="80" x2="100" y2="80" stroke="#8a8480" stroke-width="1"/><text x="92" y="84" font-size="10" text-anchor="end" fill="#4a4540">100</text><line x1="96" y1="180" x2="100" y2="180" stroke="#8a8480" stroke-width="1"/><text x="92" y="184" font-size="10" text-anchor="end" fill="#4a4540">70</text><line x1="96" y1="280" x2="100" y2="280" stroke="#8a8480" stroke-width="1"/><text x="92" y="284" font-size="10" text-anchor="end" fill="#4a4540">40</text><text x="45" y="180" font-size="11" text-anchor="middle" font-weight="bold" font-style="italic" fill="#1a1714">accuracy (%)</text><path d="M 180 92 L 340 130 L 500 200" fill="none" stroke="#1a1714" stroke-width="2" stroke-dasharray="4,3"/><circle cx="180" cy="92" r="4" fill="#fdfcfb" stroke="#1a1714" stroke-width="1"/><circle cx="340" cy="130" r="4" fill="#fdfcfb" stroke="#1a1714" stroke-width="1"/><circle cx="500" cy="200" r="4" fill="#fdfcfb" stroke="#1a1714" stroke-width="1"/><path d="M 180 88 L 340 98 L 500 130" fill="none" stroke="#1a1714" stroke-width="2"/><circle cx="180" cy="88" r="4" fill="#1a1714" stroke="#1a1714" stroke-width="1"/><circle cx="340" cy="98" r="4" fill="#1a1714" stroke="#1a1714" stroke-width="1"/><circle cx="500" cy="130" r="4" fill="#1a1714" stroke="#1a1714" stroke-width="1"/><text x="510" y="200" font-size="10" font-style="italic" fill="#4a4540">forced</text><text x="510" y="132" font-size="10" font-weight="bold" font-style="italic" fill="#1a1714">chosen (opt-in)</text><text x="350" y="320" font-size="10" text-anchor="middle" font-style="italic" fill="#4a4540">The gap WIDENS with delay — the diagnostic that rules out simple stimulus avoidance.</text></svg>