<svg xmlns="http://www.w3.org/2000/svg" viewBox="0 0 700 360" font-family="Georgia, 'Times New Roman', serif" font-size="11" fill="#1a1714"><defs>  <marker id="arrow" markerWidth="8" markerHeight="6" refX="7" refY="3" orient="auto">    <polygon points="0 0, 8 3, 0 6" fill="#1a1714"/>  </marker>  <marker id="arrowL" markerWidth="10" markerHeight="8" refX="9" refY="4" orient="auto">    <polygon points="0 0, 10 4, 0 8" fill="#1a1714"/>  </marker></defs><rect width="700" height="360" fill="#fdfcfb"/><text x="350" y="22" font-size="13" text-anchor="middle" font-weight="bold" fill="#1a1714">Metacognition across 600 million years of evolution</text><line x1="80" y1="200" x2="660" y2="200" stroke="#1a1714" stroke-width="1.2"/><line x1="80" y1="196" x2="80" y2="204" stroke="#1a1714" stroke-width="0.7"/><text x="80" y="218" font-size="9" text-anchor="middle" fill="#4a4540">common ancestor</text><line x1="341.0" y1="196" x2="341.0" y2="204" stroke="#1a1714" stroke-width="0.7"/><text x="341.0" y="218" font-size="9" text-anchor="middle" fill="#4a4540">vertebrate split</text><line x1="457.0" y1="196" x2="457.0" y2="204" stroke="#1a1714" stroke-width="0.7"/><text x="457.0" y="218" font-size="9" text-anchor="middle" fill="#4a4540">amniote split</text><line x1="573.0" y1="196" x2="573.0" y2="204" stroke="#1a1714" stroke-width="0.7"/><text x="573.0" y="218" font-size="9" text-anchor="middle" fill="#4a4540">primates</text><line x1="660.0" y1="196" x2="660.0" y2="204" stroke="#1a1714" stroke-width="0.7"/><text x="660.0" y="218" font-size="9" text-anchor="middle" fill="#4a4540">today</text><line x1="532.4000000000001" y1="110" x2="532.4000000000001" y2="200" stroke="#c8c4c0" stroke-width="0.6" stroke-dasharray="2,2"/><circle cx="532.4000000000001" cy="110" r="5" fill="#4a4540" stroke="#1a1714" stroke-width="1"/><text x="532.4000000000001" y="128" font-size="9" text-anchor="middle" fill="#1a1714">Dolphin (Smith 1995)</text><text x="532.4000000000001" y="140" font-size="9" text-anchor="middle" fill="#1a1714">uncertainty monitoring</text><line x1="578.8" y1="80" x2="578.8" y2="200" stroke="#c8c4c0" stroke-width="0.6" stroke-dasharray="2,2"/><circle cx="578.8" cy="80" r="5" fill="#4a4540" stroke="#1a1714" stroke-width="1"/><text x="578.8" y="98" font-size="9" text-anchor="middle" fill="#1a1714">Macaque (Hampton 2001)</text><text x="578.8" y="110" font-size="9" text-anchor="middle" fill="#1a1714">uncertainty monitoring</text><line x1="532.4000000000001" y1="270" x2="532.4000000000001" y2="200" stroke="#c8c4c0" stroke-width="0.6" stroke-dasharray="2,2"/><circle cx="532.4000000000001" cy="270" r="5" fill="#4a4540" stroke="#1a1714" stroke-width="1"/><text x="532.4000000000001" y="288" font-size="9" text-anchor="middle" fill="#1a1714">Rat (Foote-Crystal 2007)</text><text x="532.4000000000001" y="300" font-size="9" text-anchor="middle" fill="#1a1714">uncertainty monitoring</text><line x1="399.0" y1="90" x2="399.0" y2="200" stroke="#c8c4c0" stroke-width="0.6" stroke-dasharray="2,2"/><circle cx="399.0" cy="90" r="5" fill="#4a4540" stroke="#1a1714" stroke-width="1"/><text x="399.0" y="108" font-size="9" text-anchor="middle" fill="#1a1714">Honeybee (Perry-Barron 2013)</text><text x="399.0" y="120" font-size="9" text-anchor="middle" fill="#1a1714">uncertainty monitoring</text><line x1="625.1999999999999" y1="270" x2="625.1999999999999" y2="200" stroke="#c8c4c0" stroke-width="0.6" stroke-dasharray="2,2"/><circle cx="625.1999999999999" cy="270" r="5" fill="#1a1714" stroke="#1a1714" stroke-width="1"/><text x="625.1999999999999" y="288" font-size="9" text-anchor="middle" fill="#1a1714">Scrub-jay (Watanabe-Clayton 2016)</text><text x="625.1999999999999" y="300" font-size="9" text-anchor="middle" fill="#1a1714">information seeking</text><text x="45" y="90" font-size="10" font-weight="bold" font-style="italic" fill="#1a1714">info-seeking</text><text x="45" y="110" font-size="9" font-style="italic" fill="#4a4540">(higher demand)</text><text x="45" y="270" font-size="10" font-style="italic" fill="#1a1714">uncertainty monitoring</text><text x="45" y="285" font-size="9" font-style="italic" fill="#4a4540">(lower demand)</text><text x="350" y="330" font-size="10" text-anchor="middle" font-style="italic" fill="#4a4540">Information seeking is the higher rung. Most demonstrations remain at uncertainty monitoring.</text></svg>