<svg xmlns="http://www.w3.org/2000/svg" viewBox="0 0 700 360" font-family="Georgia, 'Times New Roman', serif" font-size="11" fill="#1a1714"><defs>  <marker id="arrow" markerWidth="8" markerHeight="6" refX="7" refY="3" orient="auto">    <polygon points="0 0, 8 3, 0 6" fill="#1a1714"/>  </marker>  <marker id="arrowL" markerWidth="10" markerHeight="8" refX="9" refY="4" orient="auto">    <polygon points="0 0, 10 4, 0 8" fill="#1a1714"/>  </marker></defs><rect width="700" height="360" fill="#fdfcfb"/><text x="350" y="22" font-size="13" text-anchor="middle" font-weight="bold" fill="#1a1714">Honeybee swarm — quality-weighted positive feedback with stop signals</text><rect x="60" y="60" width="140" height="200" fill="#f5f2ee" stroke="#1a1714" stroke-width="1"/><circle cx="130" cy="130" r="30" fill="#c8c4c0" stroke="#1a1714" stroke-width="1"/><text x="130" y="134" font-size="9" text-anchor="middle" font-style="italic" fill="#1a1714">swarm</text><line x1="152" y1="115" x2="195" y2="90" stroke="#1a1714" stroke-width="1.5" marker-end="url(#arrow)"/><line x1="108" y1="115" x2="65" y2="90" stroke="#1a1714" stroke-width="1.5" marker-end="url(#arrow)"/><text x="130" y="250" font-size="9" text-anchor="middle" font-style="italic" fill="#4a4540">site A and site B</text><text x="130" y="290" font-size="11" text-anchor="middle" font-weight="bold" fill="#1a1714">1. Scouts depart</text><rect x="230" y="60" width="140" height="200" fill="#f5f2ee" stroke="#1a1714" stroke-width="1"/><circle cx="300" cy="130" r="30" fill="#c8c4c0" stroke="#1a1714" stroke-width="1"/><text x="300" y="134" font-size="9" text-anchor="middle" font-style="italic" fill="#1a1714">swarm</text><circle cx="277.0186667064307" cy="149.2836282905962" r="3" fill="#1a1714" stroke="#1a1714" stroke-width="1"/><circle cx="274.8398829616373" cy="146.33917105045083" r="3" fill="#1a1714" stroke="#1a1714" stroke-width="1"/><circle cx="273.036178611025" cy="143.15113440367233" r="3" fill="#1a1714" stroke="#1a1714" stroke-width="1"/><circle cx="271.6344427320205" cy="139.7670446337147" r="3" fill="#1a1714" stroke="#1a1714" stroke-width="1"/><circle cx="270.6555719779858" cy="136.23735072453277" r="3" fill="#1a1714" stroke="#1a1714" stroke-width="1"/><circle cx="270.11415905724766" cy="132.61467228242975" r="3" fill="#1a1714" stroke="#1a1714" stroke-width="1"/><circle cx="270.01827518942713" cy="128.95301509892496" r="3" fill="#1a1714" stroke="#1a1714" stroke-width="1"/><circle cx="270.3693497821459" cy="125.30696604879307" r="3" fill="#1a1714" stroke="#1a1714" stroke-width="1"/><circle cx="322.9813332935693" cy="110.71637170940382" r="3" fill="#4a4540" stroke="#1a1714" stroke-width="1"/><circle cx="325.1601170383627" cy="113.6608289495492" r="3" fill="#4a4540" stroke="#1a1714" stroke-width="1"/><circle cx="326.963821388975" cy="116.84886559632767" r="3" fill="#4a4540" stroke="#1a1714" stroke-width="1"/><circle cx="328.3655572679795" cy="120.2329553662853" r="3" fill="#4a4540" stroke="#1a1714" stroke-width="1"/><circle cx="329.34442802201414" cy="123.7626492754672" r="3" fill="#4a4540" stroke="#1a1714" stroke-width="1"/><line x1="275" y1="120" x2="325" y2="140" stroke="#1a1714" stroke-width="1" stroke-dasharray="3,2"/><line x1="325" y1="120" x2="275" y2="140" stroke="#1a1714" stroke-width="1" stroke-dasharray="3,2"/><text x="300" y="220" font-size="9" text-anchor="middle" font-style="italic" fill="#1a1714">vibrational stop</text><text x="300" y="234" font-size="9" text-anchor="middle" font-style="italic" fill="#1a1714">signals between</text><text x="300" y="290" font-size="11" text-anchor="middle" font-weight="bold" fill="#1a1714">2. Two dancer pops.</text><text x="300" y="304" font-size="11" text-anchor="middle" font-weight="bold" fill="#1a1714">with stop signals</text><rect x="400" y="60" width="140" height="200" fill="#f5f2ee" stroke="#1a1714" stroke-width="1"/><circle cx="470" cy="130" r="30" fill="#c8c4c0" stroke="#1a1714" stroke-width="1"/><text x="470" y="134" font-size="9" text-anchor="middle" font-style="italic" fill="#1a1714">swarm</text><circle cx="440.0" cy="130.0" r="3" fill="#1a1714" stroke="#1a1714" stroke-width="1"/><circle cx="440.76889805644294" cy="123.25146836968405" r="3" fill="#1a1714" stroke="#1a1714" stroke-width="1"/><circle cx="443.036178611025" cy="116.84886559632767" r="3" fill="#1a1714" stroke="#1a1714" stroke-width="1"/><circle cx="446.6856211562909" cy="111.12038826850487" r="3" fill="#1a1714" stroke="#1a1714" stroke-width="1"/><circle cx="451.53015574023027" cy="106.35967739179833" r="3" fill="#1a1714" stroke="#1a1714" stroke-width="1"/><circle cx="457.32145214777904" cy="102.8107663889005" r="3" fill="#1a1714" stroke="#1a1714" stroke-width="1"/><circle cx="463.7626492754672" cy="100.65557197798583" r="3" fill="#1a1714" stroke="#1a1714" stroke-width="1"/><circle cx="470.52357219311847" cy="100.00456914530827" r="3" fill="#1a1714" stroke="#1a1714" stroke-width="1"/><circle cx="477.25765686799" cy="100.8911282117201" r="3" fill="#1a1714" stroke="#1a1714" stroke-width="1"/><circle cx="483.6197149921864" cy="103.26980427434896" r="3" fill="#1a1714" stroke="#1a1714" stroke-width="1"/><circle cx="489.2836282905962" cy="107.01866670643065" r="3" fill="#1a1714" stroke="#1a1714" stroke-width="1"/><circle cx="493.9590653014188" cy="111.94554930543855" r="3" fill="#1a1714" stroke="#1a1714" stroke-width="1"/><circle cx="497.40636372927804" cy="117.797900707726" r="3" fill="#1a1714" stroke="#1a1714" stroke-width="1"/><circle cx="499.4488155034299" cy="124.27573013870366" r="3" fill="#1a1714" stroke="#1a1714" stroke-width="1"/><circle cx="499.98172481057287" cy="131.04698490107504" r="3" fill="#1a1714" stroke="#1a1714" stroke-width="1"/><line x1="410" y1="200" x2="530" y2="200" stroke="#1a1714" stroke-width="1.5" stroke-dasharray="4,3"/><text x="470" y="215" font-size="10" text-anchor="middle" font-weight="bold" font-style="italic" fill="#1a1714">quorum</text><text x="470" y="290" font-size="11" text-anchor="middle" font-weight="bold" fill="#1a1714">3. One pop. wins</text><text x="470" y="304" font-size="11" text-anchor="middle" font-weight="bold" fill="#1a1714">at quorum threshold</text><rect x="570" y="60" width="140" height="200" fill="#f5f2ee" stroke="#1a1714" stroke-width="1"/><circle cx="640" cy="130" r="30" fill="#c8c4c0" stroke="#1a1714" stroke-width="1"/><text x="640" y="134" font-size="9" text-anchor="middle" font-style="italic" fill="#1a1714">swarm</text><line x1="640" y1="130" x2="640" y2="90" stroke="#1a1714" stroke-width="2" marker-end="url(#arrow)"/><line x1="652" y1="130" x2="652" y2="90" stroke="#1a1714" stroke-width="2" marker-end="url(#arrow)"/><line x1="628" y1="130" x2="628" y2="90" stroke="#1a1714" stroke-width="2" marker-end="url(#arrow)"/><text x="640" y="250" font-size="10" text-anchor="middle" font-weight="bold" font-style="italic" fill="#1a1714">to winning site</text><text x="640" y="290" font-size="11" text-anchor="middle" font-weight="bold" fill="#1a1714">4. Swarm lifts off</text><text x="350" y="350" font-size="10" text-anchor="middle" font-style="italic" fill="#4a4540">No central planner. Local interactions; global decision. Cross-inhibition speeds convergence.</text></svg>