<svg xmlns="http://www.w3.org/2000/svg" viewBox="0 0 700 360" font-family="Georgia, 'Times New Roman', serif" font-size="11" fill="#1a1714"><defs>  <marker id="arrow" markerWidth="8" markerHeight="6" refX="7" refY="3" orient="auto">    <polygon points="0 0, 8 3, 0 6" fill="#1a1714"/>  </marker>  <marker id="arrowL" markerWidth="10" markerHeight="8" refX="9" refY="4" orient="auto">    <polygon points="0 0, 10 4, 0 8" fill="#1a1714"/>  </marker></defs><rect width="700" height="360" fill="#fdfcfb"/><text x="350" y="22" font-size="13" text-anchor="middle" font-weight="bold" fill="#1a1714">Geirhos cue-conflict — texture beats shape in ImageNet-trained CNNs</text><text x="180" y="60" font-size="11" text-anchor="middle" font-weight="bold" fill="#1a1714">Cat shape  +  elephant skin</text><rect x="60" y="80" width="240" height="200" fill="#f5f2ee" stroke="#1a1714" stroke-width="1"/><path d="M 120 250 L 120 180 L 110 160 L 130 150 L 130 130 L 150 130 L 160 110 L 180 110 L 190 130 L 220 130 L 240 150 L 250 170 L 250 230 L 240 250 Z" fill="#c8c4c0" stroke="#1a1714" stroke-width="1.2"/><line x1="130" y1="150" x2="142" y2="154" stroke="#4a4540" stroke-width="0.6"/><line x1="152" y1="150" x2="164" y2="154" stroke="#4a4540" stroke-width="0.6"/><line x1="174" y1="150" x2="186" y2="154" stroke="#4a4540" stroke-width="0.6"/><line x1="196" y1="150" x2="208" y2="154" stroke="#4a4540" stroke-width="0.6"/><line x1="218" y1="150" x2="230" y2="154" stroke="#4a4540" stroke-width="0.6"/><line x1="130" y1="180" x2="142" y2="184" stroke="#4a4540" stroke-width="0.6"/><line x1="152" y1="180" x2="164" y2="184" stroke="#4a4540" stroke-width="0.6"/><line x1="174" y1="180" x2="186" y2="184" stroke="#4a4540" stroke-width="0.6"/><line x1="196" y1="180" x2="208" y2="184" stroke="#4a4540" stroke-width="0.6"/><line x1="218" y1="180" x2="230" y2="184" stroke="#4a4540" stroke-width="0.6"/><line x1="130" y1="210" x2="142" y2="214" stroke="#4a4540" stroke-width="0.6"/><line x1="152" y1="210" x2="164" y2="214" stroke="#4a4540" stroke-width="0.6"/><line x1="174" y1="210" x2="186" y2="214" stroke="#4a4540" stroke-width="0.6"/><line x1="196" y1="210" x2="208" y2="214" stroke="#4a4540" stroke-width="0.6"/><line x1="218" y1="210" x2="230" y2="214" stroke="#4a4540" stroke-width="0.6"/><text x="180" y="305" font-size="10" text-anchor="middle" font-weight="bold" font-style="italic" fill="#1a1714">human: 'cat'  /  CNN: 'elephant'</text><text x="520" y="60" font-size="11" text-anchor="middle" font-weight="bold" fill="#1a1714">Elephant shape  +  cat fur</text><rect x="400" y="80" width="240" height="200" fill="#f5f2ee" stroke="#1a1714" stroke-width="1"/><path d="M 440 250 L 440 200 L 430 180 L 440 160 L 460 150 L 480 150 L 510 130 L 540 130 L 570 150 L 600 160 L 620 180 L 620 240 L 610 250 Z" fill="#c8c4c0" stroke="#1a1714" stroke-width="1.2"/><line x1="440" y1="180" x2="441" y2="175" stroke="#4a4540" stroke-width="0.5"/><line x1="465" y1="180" x2="466" y2="175" stroke="#4a4540" stroke-width="0.5"/><line x1="490" y1="180" x2="491" y2="175" stroke="#4a4540" stroke-width="0.5"/><line x1="515" y1="180" x2="516" y2="175" stroke="#4a4540" stroke-width="0.5"/><line x1="540" y1="180" x2="541" y2="175" stroke="#4a4540" stroke-width="0.5"/><line x1="565" y1="180" x2="566" y2="175" stroke="#4a4540" stroke-width="0.5"/><line x1="590" y1="180" x2="591" y2="175" stroke="#4a4540" stroke-width="0.5"/><line x1="444" y1="192" x2="445" y2="187" stroke="#4a4540" stroke-width="0.5"/><line x1="469" y1="192" x2="470" y2="187" stroke="#4a4540" stroke-width="0.5"/><line x1="494" y1="192" x2="495" y2="187" stroke="#4a4540" stroke-width="0.5"/><line x1="519" y1="192" x2="520" y2="187" stroke="#4a4540" stroke-width="0.5"/><line x1="544" y1="192" x2="545" y2="187" stroke="#4a4540" stroke-width="0.5"/><line x1="569" y1="192" x2="570" y2="187" stroke="#4a4540" stroke-width="0.5"/><line x1="594" y1="192" x2="595" y2="187" stroke="#4a4540" stroke-width="0.5"/><line x1="448" y1="204" x2="449" y2="199" stroke="#4a4540" stroke-width="0.5"/><line x1="473" y1="204" x2="474" y2="199" stroke="#4a4540" stroke-width="0.5"/><line x1="498" y1="204" x2="499" y2="199" stroke="#4a4540" stroke-width="0.5"/><line x1="523" y1="204" x2="524" y2="199" stroke="#4a4540" stroke-width="0.5"/><line x1="548" y1="204" x2="549" y2="199" stroke="#4a4540" stroke-width="0.5"/><line x1="573" y1="204" x2="574" y2="199" stroke="#4a4540" stroke-width="0.5"/><line x1="598" y1="204" x2="599" y2="199" stroke="#4a4540" stroke-width="0.5"/><line x1="452" y1="216" x2="453" y2="211" stroke="#4a4540" stroke-width="0.5"/><line x1="477" y1="216" x2="478" y2="211" stroke="#4a4540" stroke-width="0.5"/><line x1="502" y1="216" x2="503" y2="211" stroke="#4a4540" stroke-width="0.5"/><line x1="527" y1="216" x2="528" y2="211" stroke="#4a4540" stroke-width="0.5"/><line x1="552" y1="216" x2="553" y2="211" stroke="#4a4540" stroke-width="0.5"/><line x1="577" y1="216" x2="578" y2="211" stroke="#4a4540" stroke-width="0.5"/><line x1="602" y1="216" x2="603" y2="211" stroke="#4a4540" stroke-width="0.5"/><line x1="456" y1="228" x2="457" y2="223" stroke="#4a4540" stroke-width="0.5"/><line x1="481" y1="228" x2="482" y2="223" stroke="#4a4540" stroke-width="0.5"/><line x1="506" y1="228" x2="507" y2="223" stroke="#4a4540" stroke-width="0.5"/><line x1="531" y1="228" x2="532" y2="223" stroke="#4a4540" stroke-width="0.5"/><line x1="556" y1="228" x2="557" y2="223" stroke="#4a4540" stroke-width="0.5"/><line x1="581" y1="228" x2="582" y2="223" stroke="#4a4540" stroke-width="0.5"/><line x1="606" y1="228" x2="607" y2="223" stroke="#4a4540" stroke-width="0.5"/><text x="520" y="305" font-size="10" text-anchor="middle" font-weight="bold" font-style="italic" fill="#1a1714">human: 'elephant'  /  CNN: 'cat'</text><text x="350" y="340" font-size="10" text-anchor="middle" font-style="italic" fill="#4a4540">Network gets benchmark performance via texture cues. Right answers, wrong computation.</text></svg>