<svg xmlns="http://www.w3.org/2000/svg" viewBox="0 0 700 480" font-family="Georgia, 'Times New Roman', serif" font-size="11" fill="#1a1714"><defs>  <marker id="arrow" markerWidth="8" markerHeight="6" refX="7" refY="3" orient="auto">    <polygon points="0 0, 8 3, 0 6" fill="#1a1714"/>  </marker>  <marker id="arrowL" markerWidth="10" markerHeight="8" refX="9" refY="4" orient="auto">    <polygon points="0 0, 10 4, 0 8" fill="#1a1714"/>  </marker></defs><rect width="700" height="480" fill="#fdfcfb"/><text x="350" y="22" font-size="13" text-anchor="middle" font-weight="bold" fill="#1a1714">AI cognitive profile — extreme highs and extreme lows</text><line x1="350" y1="250" x2="350.0" y2="90.0" stroke="#c8c4c0" stroke-width="0.6"/><text x="350.0" y="60.0" font-size="9" text-anchor="middle" fill="#1a1714">in-distribution</text><text x="350.0" y="72.0" font-size="9" text-anchor="middle" fill="#1a1714">pattern recognition</text><line x1="350" y1="250" x2="475.0930371948848" y2="150.24163170260266" stroke="#c8c4c0" stroke-width="0.6"/><text x="498.5479816689257" y="131.53693764684064" font-size="9" text-anchor="middle" fill="#1a1714">ToM (standard</text><text x="498.5479816689257" y="143.53693764684064" font-size="9" text-anchor="middle" fill="#1a1714">benchmarks)</text><line x1="350" y1="250" x2="505.9884659490918" y2="285.6033494330103" stroke="#c8c4c0" stroke-width="0.6"/><text x="535.2363033145465" y="292.27897745169975" font-size="9" text-anchor="middle" fill="#1a1714">ToM (perturbation</text><text x="535.2363033145465" y="304.27897745169975" font-size="9" text-anchor="middle" fill="#1a1714">robustness)</text><line x1="350" y1="250" x2="419.4213982588093" y2="394.1550188643871" stroke="#c8c4c0" stroke-width="0.6"/><text x="432.437910432336" y="421.18408490145964" font-size="9" text-anchor="middle" fill="#1a1714">metacognition</text><text x="432.437910432336" y="433.18408490145964" font-size="9" text-anchor="middle" fill="#1a1714">(language)</text><line x1="350" y1="250" x2="280.5786017411907" y2="394.1550188643871" stroke="#c8c4c0" stroke-width="0.6"/><text x="267.562089567664" y="421.18408490145964" font-size="9" text-anchor="middle" fill="#1a1714">metacognition</text><text x="267.562089567664" y="433.18408490145964" font-size="9" text-anchor="middle" fill="#1a1714">(operation)</text><line x1="350" y1="250" x2="194.0115340509082" y2="285.6033494330103" stroke="#c8c4c0" stroke-width="0.6"/><text x="164.7636966854535" y="292.27897745169975" font-size="9" text-anchor="middle" fill="#1a1714">embodied</text><text x="164.7636966854535" y="304.27897745169975" font-size="9" text-anchor="middle" fill="#1a1714">navigation</text><line x1="350" y1="250" x2="224.9069628051152" y2="150.24163170260266" stroke="#c8c4c0" stroke-width="0.6"/><text x="201.45201833107433" y="131.53693764684067" font-size="9" text-anchor="middle" fill="#1a1714">cumulative</text><text x="201.45201833107433" y="143.53693764684067" font-size="9" text-anchor="middle" fill="#1a1714">culture</text><circle cx="350" cy="250" r="40" fill="none" stroke="#c8c4c0" stroke-width="0.5" stroke-dasharray="2,2"/><circle cx="350" cy="250" r="80" fill="none" stroke="#c8c4c0" stroke-width="0.5" stroke-dasharray="2,2"/><circle cx="350" cy="250" r="120" fill="none" stroke="#c8c4c0" stroke-width="0.5" stroke-dasharray="2,2"/><circle cx="350" cy="250" r="160" fill="none" stroke="#c8c4c0" stroke-width="0.5" stroke-dasharray="2,2"/><path d="M 350.0 100.0 L 443.8 175.2 L 379.2 256.7 L 406.4 367.1 L 339.2 272.5 L 340.3 252.2 L 338.3 240.6 Z" fill="#c8c4c0" stroke="#1a1714" stroke-width="2"/><path d="M 350.0 170.0 L 404.7 206.4 L 418.2 265.6 L 376.0 304.1 L 326.1 299.6 L 262.3 270.0 L 303.1 212.6 Z" fill="none" stroke="#1a1714" stroke-width="1.5" stroke-dasharray="4,3"/><line x1="60" y1="440" x2="80" y2="440" stroke="#1a1714" stroke-width="2"/><text x="86" y="444" font-size="10" fill="#1a1714">AI profile</text><line x1="180" y1="440" x2="200" y2="440" stroke="#1a1714" stroke-width="1.5" stroke-dasharray="4,3"/><text x="206" y="444" font-size="10" fill="#1a1714">biological generalist</text><text x="350" y="460" font-size="10" text-anchor="middle" font-style="italic" fill="#4a4540">The shape — not the height — is the data point.</text></svg>