<svg xmlns="http://www.w3.org/2000/svg" viewBox="0 0 700 480" font-family="Georgia, 'Times New Roman', serif" font-size="11" fill="#1a1714"><defs>  <marker id="arrow" markerWidth="8" markerHeight="6" refX="7" refY="3" orient="auto">    <polygon points="0 0, 8 3, 0 6" fill="#1a1714"/>  </marker>  <marker id="arrowL" markerWidth="10" markerHeight="8" refX="9" refY="4" orient="auto">    <polygon points="0 0, 10 4, 0 8" fill="#1a1714"/>  </marker></defs><rect width="700" height="480" fill="#fdfcfb"/><text x="350" y="22" font-size="13" text-anchor="middle" font-weight="bold" fill="#1a1714">C. elegans across the book's 14 cognitive axes</text><line x1="350" y1="270" x2="350.0" y2="105.0" stroke="#c8c4c0" stroke-width="0.5"/><text x="350.0" y="73.0" font-size="9" text-anchor="middle" fill="#1a1714">steering</text><line x1="350" y1="270" x2="421.5908169543971" y2="121.34013679610084" stroke="#c8c4c0" stroke-width="0.5"/><text x="435.47509660615896" y="92.50913302322343" font-size="9" text-anchor="middle" fill="#1a1714">learning</text><line x1="350" y1="270" x2="479.0021946072249" y2="167.12418269330897" stroke="#c8c4c0" stroke-width="0.5"/><text x="504.0208020462019" y="147.1725090338295" font-size="9" text-anchor="middle" fill="#1a1714">affect</text><line x1="350" y1="270" x2="510.8631055100009" y2="233.28404589720813" stroke="#c8c4c0" stroke-width="0.5"/><text x="542.0607986998193" y="226.16337601060607" font-size="9" text-anchor="middle" fill="#1a1714">pattern</text><text x="542.0607986998193" y="238.16337601060607" font-size="9" text-anchor="middle" fill="#1a1714">recognition</text><line x1="350" y1="270" x2="510.8631055100009" y2="306.7159541027919" stroke="#c8c4c0" stroke-width="0.5"/><text x="542.0607986998193" y="313.83662398939396" font-size="9" text-anchor="middle" fill="#1a1714">navigation</text><line x1="350" y1="270" x2="479.0021946072249" y2="372.87581730669103" stroke="#c8c4c0" stroke-width="0.5"/><text x="504.0208020462019" y="392.8274909661705" font-size="9" text-anchor="middle" fill="#1a1714">RL</text><line x1="350" y1="270" x2="421.5908169543971" y2="418.65986320389914" stroke="#c8c4c0" stroke-width="0.5"/><text x="435.47509660615896" y="447.4908669767766" font-size="9" text-anchor="middle" fill="#1a1714">simulation</text><line x1="350" y1="270" x2="350.0" y2="435.0" stroke="#c8c4c0" stroke-width="0.5"/><text x="350.0" y="467.0" font-size="9" text-anchor="middle" fill="#1a1714">social</text><line x1="350" y1="270" x2="278.4091830456029" y2="418.65986320389914" stroke="#c8c4c0" stroke-width="0.5"/><text x="264.52490339384104" y="447.4908669767766" font-size="9" text-anchor="middle" fill="#1a1714">ToM</text><line x1="350" y1="270" x2="220.9978053927751" y2="372.87581730669103" stroke="#c8c4c0" stroke-width="0.5"/><text x="195.97919795379812" y="392.8274909661705" font-size="9" text-anchor="middle" fill="#1a1714">creativity</text><line x1="350" y1="270" x2="189.1368944899991" y2="306.7159541027919" stroke="#c8c4c0" stroke-width="0.5"/><text x="157.93920130018074" y="313.83662398939396" font-size="9" text-anchor="middle" fill="#1a1714">self-awareness</text><line x1="350" y1="270" x2="189.13689448999907" y2="233.28404589720827" stroke="#c8c4c0" stroke-width="0.5"/><text x="157.9392013001807" y="226.16337601060627" font-size="9" text-anchor="middle" fill="#1a1714">metacognition</text><line x1="350" y1="270" x2="220.99780539277506" y2="167.124182693309" stroke="#c8c4c0" stroke-width="0.5"/><text x="195.97919795379812" y="147.17250903382953" font-size="9" text-anchor="middle" fill="#1a1714">language</text><line x1="350" y1="270" x2="278.409183045603" y2="121.34013679610078" stroke="#c8c4c0" stroke-width="0.5"/><text x="264.5249033938412" y="92.50913302322337" font-size="9" text-anchor="middle" fill="#1a1714">cumulative</text><text x="264.5249033938412" y="104.50913302322337" font-size="9" text-anchor="middle" fill="#1a1714">culture</text><circle cx="350" cy="270" r="50" fill="none" stroke="#c8c4c0" stroke-width="0.5" stroke-dasharray="2,2"/><circle cx="350" cy="270" r="100" fill="none" stroke="#c8c4c0" stroke-width="0.5" stroke-dasharray="2,2"/><circle cx="350" cy="270" r="150" fill="none" stroke="#c8c4c0" stroke-width="0.5" stroke-dasharray="2,2"/><path d="M 350.0 200.0 L 371.7 225.0 L 357.8 263.8 L 379.2 263.3 L 384.1 277.8 L 381.3 294.9 L 350.4 270.9 L 350.0 271.0 L 349.6 270.9 L 349.2 270.6 L 349.0 270.2 L 349.0 269.8 L 349.2 269.4 L 349.6 269.1 Z" fill="#c8c4c0" stroke="#1a1714" stroke-width="2"/><circle cx="350.0" cy="271.0" r="3" fill="#1a1714" stroke="#1a1714" stroke-width="1"/><circle cx="349.56611626088244" cy="270.9009688679024" r="3" fill="#1a1714" stroke="#1a1714" stroke-width="1"/><circle cx="349.218168517532" cy="270.62348980185874" r="3" fill="#1a1714" stroke="#1a1714" stroke-width="1"/><circle cx="349.02507208781816" cy="270.22252093395633" r="3" fill="#1a1714" stroke="#1a1714" stroke-width="1"/><circle cx="349.02507208781816" cy="269.77747906604367" r="3" fill="#1a1714" stroke="#1a1714" stroke-width="1"/><circle cx="349.218168517532" cy="269.37651019814126" r="3" fill="#1a1714" stroke="#1a1714" stroke-width="1"/><circle cx="349.56611626088244" cy="269.0990311320976" r="3" fill="#1a1714" stroke="#1a1714" stroke-width="1"/><text x="350" y="460" font-size="10" text-anchor="middle" font-style="italic" fill="#4a4540">Present on 6 axes. Absent on 8. The worm's shape is small, asymmetric, and exactly fitted to its niche.</text></svg>